<svg width="688" height="870" viewBox="0 0 688 870" fill="none" xmlns="http://www.w3.org/2000/svg">
<rect width="344" height="344" fill="#080708"/>
<path d="M177.5 140V218.5C177.5 226.232 171.232 232.5 163.5 232.5V232.5C155.768 232.5 149.5 238.768 149.5 246.5V265.46C149.5 267.199 147.434 268.11 146.15 266.936L114.231 237.742C110.545 234.37 105.729 232.5 100.733 232.5H58C46.9543 232.5 38 223.546 38 212.5V145.264C38 134.92 45.9681 126.04 55.5411 122.121C67.2945 117.31 79.5 109.305 79.5 99.5" stroke="#0CCE6B" stroke-width="16"/>
<rect x="56.5" y="74.5" width="103" height="15" rx="7.5" fill="#0CCE6B" stroke="#0CCE6B"/>
<path d="M57 151C63.9759 150.988 69.3687 150.078 75.1771 148.001C84.9251 144.517 95.698 144.164 104.645 149.371L109.291 152.074C118.752 157.579 130.374 157.043 140.881 153.978C151.09 151 159 151 159 151" stroke="#0CCE6B" stroke-width="16"/>
<circle cx="79" cy="192" r="12" fill="#0CCE6B"/>
<circle cx="136" cy="192" r="12" fill="#0CCE6B"/>
<path d="M219.441 203.23C217.329 203.23 215.504 202.99 213.968 202.51C212.451 202.03 211.164 201.406 210.107 200.638C209.07 199.869 208.235 199.005 207.601 198.045C206.967 197.065 206.478 196.076 206.132 195.078C205.805 194.079 205.584 193.119 205.469 192.197C205.373 191.275 205.325 190.478 205.325 189.806C205.325 189.518 205.344 189.172 205.383 188.769C205.44 188.346 205.613 187.943 205.901 187.559C206.189 187.174 206.641 186.848 207.255 186.579C207.889 186.31 208.782 186.176 209.935 186.176C210.319 186.176 210.799 186.205 211.375 186.262C211.951 186.301 212.508 186.425 213.046 186.637C213.584 186.829 214.045 187.117 214.429 187.501C214.813 187.885 215.005 188.404 215.005 189.057C215.005 190.094 215.062 191.025 215.178 191.851C215.312 192.677 215.543 193.378 215.869 193.954C216.196 194.53 216.647 194.972 217.223 195.279C217.799 195.587 218.539 195.74 219.441 195.74C220.382 195.74 221.103 195.548 221.602 195.164C222.121 194.78 222.495 194.348 222.726 193.868C222.994 193.33 223.148 192.706 223.187 191.995V170.85H215.639C214.87 170.85 214.102 170.811 213.334 170.734C212.566 170.658 211.865 170.485 211.231 170.216C210.616 169.947 210.107 169.544 209.704 169.006C209.32 168.468 209.128 167.738 209.128 166.816C209.128 165.875 209.32 165.126 209.704 164.569C210.107 164.012 210.616 163.599 211.231 163.331C211.865 163.042 212.566 162.86 213.334 162.783C214.102 162.706 214.87 162.668 215.639 162.668H227.393C228.487 162.668 229.352 162.86 229.985 163.244C230.638 163.628 231.128 164.137 231.455 164.771C231.781 165.386 231.992 166.087 232.088 166.874C232.184 167.661 232.232 168.468 232.232 169.294V191.188C232.232 193.186 231.944 194.876 231.368 196.259C230.792 197.642 230.062 198.784 229.179 199.687C228.314 200.57 227.354 201.252 226.298 201.732C225.261 202.213 224.262 202.568 223.302 202.798C222.361 203.01 221.535 203.134 220.824 203.173C220.114 203.211 219.653 203.23 219.441 203.23ZM262.712 196.489C262.712 197.296 262.683 198.093 262.625 198.88C262.568 199.649 262.395 200.34 262.107 200.955C261.819 201.569 261.387 202.069 260.811 202.453C260.234 202.818 259.428 203 258.391 203C257.334 203 256.508 202.827 255.913 202.481C255.318 202.117 254.876 201.684 254.588 201.185C254.3 200.667 254.117 200.129 254.041 199.572C253.983 199.015 253.954 198.544 253.954 198.16C253.781 198.717 253.532 199.284 253.205 199.86C252.898 200.436 252.494 200.955 251.995 201.416C251.496 201.876 250.891 202.261 250.18 202.568C249.489 202.856 248.673 203 247.731 203C246.675 203 245.619 202.827 244.562 202.481C243.506 202.136 242.556 201.56 241.71 200.753C240.865 199.946 240.174 198.9 239.636 197.613C239.118 196.307 238.858 194.703 238.858 192.802V184.447C238.858 182.527 239.118 180.923 239.636 179.636C240.174 178.33 240.865 177.284 241.71 176.496C242.556 175.689 243.506 175.113 244.562 174.768C245.619 174.422 246.675 174.249 247.731 174.249C248.673 174.249 249.489 174.393 250.18 174.681C250.891 174.969 251.496 175.344 251.995 175.805C252.494 176.266 252.898 176.784 253.205 177.36C253.532 177.937 253.781 178.513 253.954 179.089C253.954 178.129 254.089 177.332 254.357 176.698C254.626 176.064 254.972 175.565 255.395 175.2C255.817 174.816 256.288 174.556 256.806 174.422C257.344 174.268 257.872 174.191 258.391 174.191C259.351 174.191 260.119 174.383 260.695 174.768C261.271 175.132 261.704 175.622 261.992 176.237C262.299 176.832 262.491 177.533 262.568 178.34C262.664 179.127 262.712 179.934 262.712 180.76V196.489ZM247.731 192.053C247.731 192.571 247.751 193.08 247.789 193.58C247.827 194.079 247.933 194.53 248.106 194.934C248.279 195.337 248.528 195.663 248.855 195.913C249.201 196.144 249.671 196.259 250.267 196.259C251.016 196.259 251.621 196.096 252.082 195.769C252.562 195.423 252.936 194.905 253.205 194.213C253.474 193.503 253.656 192.619 253.752 191.563C253.868 190.487 253.935 189.21 253.954 187.731C253.954 187.136 253.896 186.454 253.781 185.686C253.685 184.899 253.503 184.159 253.234 183.468C252.965 182.776 252.59 182.191 252.11 181.71C251.63 181.23 251.016 180.99 250.267 180.99C249.671 180.99 249.201 181.115 248.855 181.365C248.528 181.595 248.279 181.903 248.106 182.287C247.933 182.671 247.827 183.112 247.789 183.612C247.751 184.092 247.731 184.582 247.731 185.081V192.053ZM288.006 178.513C288.006 180.011 287.631 181.105 286.882 181.797C286.153 182.488 285.106 182.834 283.742 182.834C283.55 182.834 283.272 182.853 282.907 182.892C282.561 182.911 282.187 182.988 281.783 183.122C281.38 183.237 280.967 183.42 280.544 183.669C280.141 183.9 279.767 184.226 279.421 184.649C279.075 185.052 278.797 185.571 278.585 186.205C278.374 186.838 278.269 187.597 278.269 188.48V196.72C278.269 197.507 278.221 198.275 278.125 199.024C278.048 199.773 277.856 200.446 277.548 201.041C277.241 201.617 276.799 202.088 276.223 202.453C275.647 202.818 274.869 203 273.89 203C272.929 203 272.171 202.818 271.614 202.453C271.057 202.088 270.625 201.617 270.317 201.041C270.029 200.446 269.837 199.773 269.741 199.024C269.664 198.275 269.626 197.507 269.626 196.72V180.587C269.626 179.78 269.664 179.002 269.741 178.253C269.837 177.485 270.029 176.803 270.317 176.208C270.625 175.613 271.057 175.142 271.614 174.796C272.171 174.431 272.929 174.249 273.89 174.249C274.869 174.249 275.618 174.47 276.137 174.912C276.674 175.334 277.068 175.891 277.318 176.583C277.568 177.255 277.712 178.013 277.75 178.858C277.788 179.684 277.808 180.491 277.808 181.278H278.269C278.537 180.203 278.893 179.233 279.334 178.369C279.776 177.485 280.266 176.746 280.804 176.15C281.341 175.536 281.918 175.065 282.532 174.739C283.147 174.412 283.761 174.249 284.376 174.249C285.125 174.249 285.73 174.335 286.191 174.508C286.671 174.662 287.046 174.912 287.314 175.257C287.583 175.603 287.766 176.045 287.862 176.583C287.958 177.12 288.006 177.764 288.006 178.513ZM302.007 198.218C302.007 199.85 301.594 201.06 300.768 201.848C299.942 202.616 298.78 203 297.282 203C295.746 203 294.565 202.616 293.739 201.848C292.913 201.06 292.5 199.85 292.5 198.218C292.5 196.566 292.913 195.366 293.739 194.617C294.565 193.868 295.746 193.493 297.282 193.493C298.876 193.493 300.057 193.868 300.826 194.617C301.613 195.366 302.007 196.566 302.007 198.218Z" fill="#0CCE6B"/>
<rect y="344" width="344" height="344" fill="#0CCE6B"/>
<rect x="344" y="344" width="344" height="344" fill="#080708"/>
<rect x="301" y="804" width="169" height="66" fill="#0CCE6B"/>
<rect x="470" y="804" width="168" height="66" fill="#080708"/>
<rect x="344" width="344" height="344" fill="#0CCE6B"/>
<path d="M177.5 484V562.5C177.5 570.232 171.232 576.5 163.5 576.5V576.5C155.768 576.5 149.5 582.768 149.5 590.5V609.46C149.5 611.199 147.434 612.11 146.15 610.936L114.231 581.742C110.545 578.37 105.729 576.5 100.733 576.5H58C46.9543 576.5 38 567.546 38 556.5V489.264C38 478.92 45.9681 470.04 55.5411 466.121C67.2945 461.31 79.5 453.305 79.5 443.5" stroke="#080708" stroke-width="16"/>
<rect x="56.5" y="418.5" width="103" height="15" rx="7.5" fill="#080708" stroke="#080708"/>
<path d="M57 495C63.9759 494.988 69.3687 494.078 75.1771 492.001C84.9251 488.517 95.698 488.164 104.645 493.371L109.291 496.074C118.752 501.579 130.374 501.043 140.881 497.978C151.09 495 159 495 159 495" stroke="#080708" stroke-width="16"/>
<circle cx="79" cy="536" r="12" fill="#080708"/>
<circle cx="136" cy="536" r="12" fill="#080708"/>
<path d="M219.441 547.23C217.329 547.23 215.504 546.99 213.968 546.51C212.451 546.03 211.164 545.406 210.107 544.638C209.07 543.869 208.235 543.005 207.601 542.045C206.967 541.065 206.478 540.076 206.132 539.078C205.805 538.079 205.584 537.119 205.469 536.197C205.373 535.275 205.325 534.478 205.325 533.806C205.325 533.518 205.344 533.172 205.383 532.769C205.44 532.346 205.613 531.943 205.901 531.559C206.189 531.174 206.641 530.848 207.255 530.579C207.889 530.31 208.782 530.176 209.935 530.176C210.319 530.176 210.799 530.205 211.375 530.262C211.951 530.301 212.508 530.425 213.046 530.637C213.584 530.829 214.045 531.117 214.429 531.501C214.813 531.885 215.005 532.404 215.005 533.057C215.005 534.094 215.062 535.025 215.178 535.851C215.312 536.677 215.543 537.378 215.869 537.954C216.196 538.53 216.647 538.972 217.223 539.279C217.799 539.587 218.539 539.74 219.441 539.74C220.382 539.74 221.103 539.548 221.602 539.164C222.121 538.78 222.495 538.348 222.726 537.868C222.994 537.33 223.148 536.706 223.187 535.995V514.85H215.639C214.87 514.85 214.102 514.811 213.334 514.734C212.566 514.658 211.865 514.485 211.231 514.216C210.616 513.947 210.107 513.544 209.704 513.006C209.32 512.468 209.128 511.738 209.128 510.816C209.128 509.875 209.32 509.126 209.704 508.569C210.107 508.012 210.616 507.599 211.231 507.331C211.865 507.042 212.566 506.86 213.334 506.783C214.102 506.706 214.87 506.668 215.639 506.668H227.393C228.487 506.668 229.352 506.86 229.985 507.244C230.638 507.628 231.128 508.137 231.455 508.771C231.781 509.386 231.992 510.087 232.088 510.874C232.184 511.661 232.232 512.468 232.232 513.294V535.188C232.232 537.186 231.944 538.876 231.368 540.259C230.792 541.642 230.062 542.784 229.179 543.687C228.314 544.57 227.354 545.252 226.298 545.732C225.261 546.213 224.262 546.568 223.302 546.798C222.361 547.01 221.535 547.134 220.824 547.173C220.114 547.211 219.653 547.23 219.441 547.23ZM262.712 540.489C262.712 541.296 262.683 542.093 262.625 542.88C262.568 543.649 262.395 544.34 262.107 544.955C261.819 545.569 261.387 546.069 260.811 546.453C260.234 546.818 259.428 547 258.391 547C257.334 547 256.508 546.827 255.913 546.481C255.318 546.117 254.876 545.684 254.588 545.185C254.3 544.667 254.117 544.129 254.041 543.572C253.983 543.015 253.954 542.544 253.954 542.16C253.781 542.717 253.532 543.284 253.205 543.86C252.898 544.436 252.494 544.955 251.995 545.416C251.496 545.876 250.891 546.261 250.18 546.568C249.489 546.856 248.673 547 247.731 547C246.675 547 245.619 546.827 244.562 546.481C243.506 546.136 242.556 545.56 241.71 544.753C240.865 543.946 240.174 542.9 239.636 541.613C239.118 540.307 238.858 538.703 238.858 536.802V528.447C238.858 526.527 239.118 524.923 239.636 523.636C240.174 522.33 240.865 521.284 241.71 520.496C242.556 519.689 243.506 519.113 244.562 518.768C245.619 518.422 246.675 518.249 247.731 518.249C248.673 518.249 249.489 518.393 250.18 518.681C250.891 518.969 251.496 519.344 251.995 519.805C252.494 520.266 252.898 520.784 253.205 521.36C253.532 521.937 253.781 522.513 253.954 523.089C253.954 522.129 254.089 521.332 254.357 520.698C254.626 520.064 254.972 519.565 255.395 519.2C255.817 518.816 256.288 518.556 256.806 518.422C257.344 518.268 257.872 518.191 258.391 518.191C259.351 518.191 260.119 518.383 260.695 518.768C261.271 519.132 261.704 519.622 261.992 520.237C262.299 520.832 262.491 521.533 262.568 522.34C262.664 523.127 262.712 523.934 262.712 524.76V540.489ZM247.731 536.053C247.731 536.571 247.751 537.08 247.789 537.58C247.827 538.079 247.933 538.53 248.106 538.934C248.279 539.337 248.528 539.663 248.855 539.913C249.201 540.144 249.671 540.259 250.267 540.259C251.016 540.259 251.621 540.096 252.082 539.769C252.562 539.423 252.936 538.905 253.205 538.213C253.474 537.503 253.656 536.619 253.752 535.563C253.868 534.487 253.935 533.21 253.954 531.731C253.954 531.136 253.896 530.454 253.781 529.686C253.685 528.899 253.503 528.159 253.234 527.468C252.965 526.776 252.59 526.191 252.11 525.71C251.63 525.23 251.016 524.99 250.267 524.99C249.671 524.99 249.201 525.115 248.855 525.365C248.528 525.595 248.279 525.903 248.106 526.287C247.933 526.671 247.827 527.112 247.789 527.612C247.751 528.092 247.731 528.582 247.731 529.081V536.053ZM288.006 522.513C288.006 524.011 287.631 525.105 286.882 525.797C286.153 526.488 285.106 526.834 283.742 526.834C283.55 526.834 283.272 526.853 282.907 526.892C282.561 526.911 282.187 526.988 281.783 527.122C281.38 527.237 280.967 527.42 280.544 527.669C280.141 527.9 279.767 528.226 279.421 528.649C279.075 529.052 278.797 529.571 278.585 530.205C278.374 530.838 278.269 531.597 278.269 532.48V540.72C278.269 541.507 278.221 542.275 278.125 543.024C278.048 543.773 277.856 544.446 277.548 545.041C277.241 545.617 276.799 546.088 276.223 546.453C275.647 546.818 274.869 547 273.89 547C272.929 547 272.171 546.818 271.614 546.453C271.057 546.088 270.625 545.617 270.317 545.041C270.029 544.446 269.837 543.773 269.741 543.024C269.664 542.275 269.626 541.507 269.626 540.72V524.587C269.626 523.78 269.664 523.002 269.741 522.253C269.837 521.485 270.029 520.803 270.317 520.208C270.625 519.613 271.057 519.142 271.614 518.796C272.171 518.431 272.929 518.249 273.89 518.249C274.869 518.249 275.618 518.47 276.137 518.912C276.674 519.334 277.068 519.891 277.318 520.583C277.568 521.255 277.712 522.013 277.75 522.858C277.788 523.684 277.808 524.491 277.808 525.278H278.269C278.537 524.203 278.893 523.233 279.334 522.369C279.776 521.485 280.266 520.746 280.804 520.15C281.341 519.536 281.918 519.065 282.532 518.739C283.147 518.412 283.761 518.249 284.376 518.249C285.125 518.249 285.73 518.335 286.191 518.508C286.671 518.662 287.046 518.912 287.314 519.257C287.583 519.603 287.766 520.045 287.862 520.583C287.958 521.12 288.006 521.764 288.006 522.513ZM302.007 542.218C302.007 543.85 301.594 545.06 300.768 545.848C299.942 546.616 298.78 547 297.282 547C295.746 547 294.565 546.616 293.739 545.848C292.913 545.06 292.5 543.85 292.5 542.218C292.5 540.566 292.913 539.366 293.739 538.617C294.565 537.868 295.746 537.493 297.282 537.493C298.876 537.493 300.057 537.868 300.826 538.617C301.613 539.366 302.007 540.566 302.007 542.218Z" fill="#080708"/>
<path d="M67.3125 736.25C68.1458 736.25 68.9896 736.292 69.8438 736.375C70.6979 736.458 71.4688 736.656 72.1562 736.969C72.8438 737.281 73.4062 737.75 73.8438 738.375C74.2812 738.979 74.5 739.812 74.5 740.875C74.5 741.938 74.2812 742.781 73.8438 743.406C73.4062 744.01 72.8438 744.469 72.1562 744.781C71.4688 745.094 70.6979 745.292 69.8438 745.375C68.9896 745.458 68.1458 745.5 67.3125 745.5H59.875V753.625H63.8125C64.625 753.625 65.4583 753.656 66.3125 753.719C67.1667 753.781 67.9375 753.958 68.625 754.25C69.3125 754.542 69.875 755 70.3125 755.625C70.7708 756.25 71 757.125 71 758.25C71 759.375 70.7812 760.25 70.3438 760.875C69.9062 761.5 69.3438 761.958 68.6562 762.25C67.9688 762.542 67.1979 762.719 66.3438 762.781C65.4896 762.844 64.6458 762.875 63.8125 762.875H59.875V772.812C59.875 773.729 59.8438 774.615 59.7812 775.469C59.7396 776.323 59.5625 777.094 59.25 777.781C58.9583 778.448 58.4896 778.99 57.8438 779.406C57.1979 779.802 56.2917 780 55.125 780C53.9375 780 53.0208 779.802 52.375 779.406C51.7292 778.99 51.2604 778.448 50.9688 777.781C50.6771 777.094 50.5 776.323 50.4375 775.469C50.3958 774.615 50.375 773.729 50.375 772.812V743.438C50.375 742.542 50.3958 741.667 50.4375 740.812C50.5 739.958 50.6771 739.198 50.9688 738.531C51.2604 737.844 51.7292 737.292 52.375 736.875C53.0208 736.458 53.9375 736.25 55.125 736.25H67.3125ZM77.75 760.5C77.75 758.583 78.0104 756.958 78.5312 755.625C79.0521 754.292 79.7188 753.177 80.5312 752.281C81.3646 751.385 82.2812 750.688 83.2812 750.188C84.3021 749.688 85.3021 749.312 86.2812 749.062C87.2604 748.812 88.1667 748.656 89 748.594C89.8542 748.531 90.5208 748.5 91 748.5C91.4792 748.5 92.1354 748.531 92.9688 748.594C93.8021 748.656 94.6875 748.812 95.625 749.062C96.5833 749.312 97.5417 749.688 98.5 750.188C99.4792 750.688 100.354 751.385 101.125 752.281C101.917 753.177 102.562 754.292 103.062 755.625C103.562 756.958 103.812 758.583 103.812 760.5V768.25C103.812 770.167 103.562 771.792 103.062 773.125C102.562 774.458 101.917 775.573 101.125 776.469C100.354 777.365 99.4792 778.062 98.5 778.562C97.5417 779.062 96.5833 779.438 95.625 779.688C94.6875 779.938 93.8021 780.094 92.9688 780.156C92.1354 780.219 91.4792 780.25 91 780.25C90.5208 780.25 89.8542 780.219 89 780.156C88.1667 780.094 87.2604 779.938 86.2812 779.688C85.3021 779.438 84.3021 779.062 83.2812 778.562C82.2812 778.062 81.3646 777.365 80.5312 776.469C79.7188 775.573 79.0521 774.458 78.5312 773.125C78.0104 771.792 77.75 770.167 77.75 768.25V760.5ZM87.375 770.438C87.3958 771.042 87.5417 771.573 87.8125 772.031C88.0417 772.448 88.3958 772.823 88.875 773.156C89.375 773.469 90.0833 773.625 91 773.625C91.875 773.625 92.5417 773.469 93 773.156C93.4792 772.823 93.8333 772.448 94.0625 772.031C94.3125 771.573 94.4583 771.042 94.5 770.438V759.125C94.4583 758.5 94.3125 757.927 94.0625 757.406C93.8333 756.99 93.4792 756.604 93 756.25C92.5417 755.875 91.875 755.688 91 755.688C90.0833 755.688 89.375 755.875 88.875 756.25C88.3958 756.604 88.0417 756.99 87.8125 757.406C87.5417 757.927 87.3958 758.5 87.375 759.125V770.438ZM136.438 772.875C136.438 773.771 136.385 774.646 136.281 775.5C136.177 776.354 135.948 777.115 135.594 777.781C135.26 778.448 134.771 778.99 134.125 779.406C133.5 779.802 132.646 780 131.562 780C130.5 780 129.656 779.802 129.031 779.406C128.406 778.99 127.927 778.448 127.594 777.781C127.26 777.115 127.042 776.354 126.938 775.5C126.854 774.646 126.812 773.771 126.812 772.875V760.688C126.812 760.104 126.781 759.531 126.719 758.969C126.677 758.406 126.562 757.917 126.375 757.5C126.188 757.062 125.906 756.719 125.531 756.469C125.177 756.198 124.688 756.062 124.062 756.062C123.208 756.062 122.521 756.344 122 756.906C121.479 757.469 121.062 758.24 120.75 759.219C120.458 760.198 120.26 761.354 120.156 762.688C120.052 764 120 765.417 120 766.938V772.875C120 773.771 119.948 774.646 119.844 775.5C119.74 776.354 119.51 777.115 119.156 777.781C118.823 778.448 118.333 778.99 117.688 779.406C117.062 779.802 116.208 780 115.125 780C114.062 780 113.219 779.802 112.594 779.406C111.969 778.99 111.49 778.448 111.156 777.781C110.823 777.115 110.604 776.354 110.5 775.5C110.417 774.646 110.375 773.771 110.375 772.875V755.812C110.375 754.917 110.406 754.052 110.469 753.219C110.531 752.365 110.719 751.615 111.031 750.969C111.344 750.302 111.812 749.771 112.438 749.375C113.083 748.958 113.979 748.75 115.125 748.75C116.271 748.75 117.167 748.948 117.812 749.344C118.458 749.719 118.938 750.177 119.25 750.719C119.583 751.26 119.792 751.833 119.875 752.438C119.958 753.042 120 753.562 120 754C120.167 753.396 120.427 752.781 120.781 752.156C121.135 751.531 121.583 750.969 122.125 750.469C122.688 749.969 123.354 749.562 124.125 749.25C124.896 748.917 125.792 748.75 126.812 748.75C127.958 748.75 129.104 748.938 130.25 749.312C131.396 749.688 132.427 750.312 133.344 751.188C134.26 752.062 135 753.208 135.562 754.625C136.146 756.042 136.438 757.792 136.438 759.875V772.875ZM148.125 748.75V743.25C148.125 742.375 148.167 741.521 148.25 740.688C148.354 739.854 148.573 739.115 148.906 738.469C149.24 737.802 149.719 737.271 150.344 736.875C150.969 736.458 151.812 736.25 152.875 736.25C153.917 736.25 154.75 736.458 155.375 736.875C156 737.271 156.469 737.802 156.781 738.469C157.115 739.115 157.323 739.854 157.406 740.688C157.51 741.521 157.562 742.375 157.562 743.25V748.75H160.125C160.667 748.75 161.208 748.781 161.75 748.844C162.292 748.885 162.771 749.031 163.188 749.281C163.625 749.531 163.969 749.906 164.219 750.406C164.49 750.906 164.625 751.604 164.625 752.5C164.625 753.354 164.49 754.031 164.219 754.531C163.969 755.031 163.625 755.406 163.188 755.656C162.771 755.906 162.292 756.073 161.75 756.156C161.208 756.219 160.667 756.25 160.125 756.25H157.562V767.188C157.562 767.604 157.573 768.052 157.594 768.531C157.635 768.99 157.75 769.417 157.938 769.812C158.125 770.208 158.406 770.542 158.781 770.812C159.156 771.062 159.688 771.188 160.375 771.188C161.125 771.188 161.76 771.25 162.281 771.375C162.823 771.479 163.26 771.677 163.594 771.969C163.948 772.26 164.208 772.667 164.375 773.188C164.542 773.708 164.625 774.375 164.625 775.188C164.625 776.021 164.427 776.74 164.031 777.344C163.656 777.948 163.146 778.448 162.5 778.844C161.854 779.24 161.104 779.531 160.25 779.719C159.396 779.906 158.5 780 157.562 780C156.083 780 154.812 779.844 153.75 779.531C152.708 779.219 151.833 778.781 151.125 778.219C150.438 777.635 149.885 776.948 149.469 776.156C149.073 775.344 148.771 774.438 148.562 773.438C148.375 772.438 148.25 771.365 148.188 770.219C148.146 769.052 148.125 767.833 148.125 766.562V756.25H146.375C145.833 756.25 145.292 756.219 144.75 756.156C144.229 756.073 143.76 755.906 143.344 755.656C142.927 755.406 142.583 755.031 142.312 754.531C142.062 754.031 141.938 753.354 141.938 752.5C141.938 751.604 142.062 750.906 142.312 750.406C142.583 749.906 142.927 749.531 143.344 749.281C143.76 749.031 144.229 748.885 144.75 748.844C145.292 748.781 145.833 748.75 146.375 748.75H148.125ZM249.938 765C249.354 765 248.792 764.969 248.25 764.906C247.708 764.823 247.229 764.656 246.812 764.406C246.396 764.135 246.062 763.76 245.812 763.281C245.562 762.781 245.438 762.104 245.438 761.25C245.438 760.333 245.562 759.615 245.812 759.094C246.062 758.573 246.396 758.188 246.812 757.938C247.229 757.688 247.708 757.531 248.25 757.469C248.792 757.406 249.354 757.375 249.938 757.375H263.75C264.271 757.375 264.802 757.406 265.344 757.469C265.885 757.531 266.365 757.688 266.781 757.938C267.219 758.188 267.573 758.573 267.844 759.094C268.115 759.615 268.25 760.333 268.25 761.25C268.25 762.104 268.115 762.781 267.844 763.281C267.573 763.76 267.219 764.135 266.781 764.406C266.365 764.656 265.885 764.823 265.344 764.906C264.802 764.969 264.271 765 263.75 765H251.688H249.938ZM314.562 736C316.854 736 318.823 736.26 320.469 736.781C322.135 737.302 323.531 737.979 324.656 738.812C325.802 739.646 326.719 740.594 327.406 741.656C328.094 742.698 328.615 743.76 328.969 744.844C329.344 745.927 329.583 746.969 329.688 747.969C329.812 748.969 329.875 749.833 329.875 750.562C329.875 750.875 329.844 751.26 329.781 751.719C329.74 752.156 329.562 752.583 329.25 753C328.938 753.417 328.438 753.771 327.75 754.062C327.083 754.354 326.125 754.5 324.875 754.5C324.458 754.5 323.938 754.479 323.312 754.438C322.688 754.375 322.083 754.24 321.5 754.031C320.917 753.802 320.417 753.49 320 753.094C319.583 752.677 319.375 752.104 319.375 751.375C319.375 750.25 319.302 749.24 319.156 748.344C319.031 747.448 318.792 746.688 318.438 746.062C318.083 745.438 317.594 744.958 316.969 744.625C316.344 744.292 315.542 744.125 314.562 744.125C313.542 744.125 312.75 744.344 312.188 744.781C311.646 745.198 311.25 745.656 311 746.156C310.708 746.76 310.542 747.438 310.5 748.188V768C310.542 768.917 310.708 769.719 311 770.406C311.25 771.01 311.646 771.562 312.188 772.062C312.75 772.562 313.542 772.812 314.562 772.812C315.542 772.812 316.344 772.615 316.969 772.219C317.594 771.802 318.083 771.25 318.438 770.562C318.792 769.875 319.031 769.083 319.156 768.188C319.302 767.292 319.375 766.354 319.375 765.375C319.375 765.062 319.427 764.74 319.531 764.406C319.635 764.073 319.875 763.771 320.25 763.5C320.625 763.208 321.177 762.969 321.906 762.781C322.635 762.594 323.625 762.5 324.875 762.5C326.125 762.5 327.083 762.646 327.75 762.938C328.438 763.208 328.938 763.531 329.25 763.906C329.562 764.26 329.74 764.615 329.781 764.969C329.844 765.302 329.875 765.521 329.875 765.625C329.875 767.917 329.49 769.969 328.719 771.781C327.948 773.573 326.854 775.094 325.438 776.344C324.042 777.594 322.365 778.552 320.406 779.219C318.469 779.865 316.333 780.188 314 780.188C313.625 780.188 313.01 780.156 312.156 780.094C311.323 780.031 310.385 779.865 309.344 779.594C308.302 779.323 307.229 778.917 306.125 778.375C305.021 777.833 304.01 777.083 303.094 776.125C302.198 775.146 301.458 773.938 300.875 772.5C300.292 771.042 300 769.271 300 767.188V749.75C300 748.042 300.208 746.531 300.625 745.219C301.042 743.906 301.583 742.771 302.25 741.812C302.938 740.833 303.719 740.021 304.594 739.375C305.469 738.708 306.365 738.156 307.281 737.719C309.406 736.719 311.833 736.146 314.562 736ZM334.312 760.5C334.312 758.583 334.573 756.958 335.094 755.625C335.615 754.292 336.281 753.177 337.094 752.281C337.927 751.385 338.844 750.688 339.844 750.188C340.865 749.688 341.865 749.312 342.844 749.062C343.823 748.812 344.729 748.656 345.562 748.594C346.417 748.531 347.083 748.5 347.562 748.5C348.042 748.5 348.698 748.531 349.531 748.594C350.365 748.656 351.25 748.812 352.188 749.062C353.146 749.312 354.104 749.688 355.062 750.188C356.042 750.688 356.917 751.385 357.688 752.281C358.479 753.177 359.125 754.292 359.625 755.625C360.125 756.958 360.375 758.583 360.375 760.5V768.25C360.375 770.167 360.125 771.792 359.625 773.125C359.125 774.458 358.479 775.573 357.688 776.469C356.917 777.365 356.042 778.062 355.062 778.562C354.104 779.062 353.146 779.438 352.188 779.688C351.25 779.938 350.365 780.094 349.531 780.156C348.698 780.219 348.042 780.25 347.562 780.25C347.083 780.25 346.417 780.219 345.562 780.156C344.729 780.094 343.823 779.938 342.844 779.688C341.865 779.438 340.865 779.062 339.844 778.562C338.844 778.062 337.927 777.365 337.094 776.469C336.281 775.573 335.615 774.458 335.094 773.125C334.573 771.792 334.312 770.167 334.312 768.25V760.5ZM343.938 770.438C343.958 771.042 344.104 771.573 344.375 772.031C344.604 772.448 344.958 772.823 345.438 773.156C345.938 773.469 346.646 773.625 347.562 773.625C348.438 773.625 349.104 773.469 349.562 773.156C350.042 772.823 350.396 772.448 350.625 772.031C350.875 771.573 351.021 771.042 351.062 770.438V759.125C351.021 758.5 350.875 757.927 350.625 757.406C350.396 756.99 350.042 756.604 349.562 756.25C349.104 755.875 348.438 755.688 347.562 755.688C346.646 755.688 345.938 755.875 345.438 756.25C344.958 756.604 344.604 756.99 344.375 757.406C344.104 757.927 343.958 758.5 343.938 759.125V770.438ZM393 772.875C393 773.771 392.948 774.646 392.844 775.5C392.74 776.354 392.51 777.115 392.156 777.781C391.823 778.448 391.333 778.99 390.688 779.406C390.062 779.802 389.208 780 388.125 780C387.062 780 386.219 779.802 385.594 779.406C384.969 778.99 384.49 778.448 384.156 777.781C383.823 777.115 383.604 776.354 383.5 775.5C383.417 774.646 383.375 773.771 383.375 772.875V760.688C383.375 760.104 383.344 759.531 383.281 758.969C383.24 758.406 383.125 757.917 382.938 757.5C382.75 757.062 382.469 756.719 382.094 756.469C381.74 756.198 381.25 756.062 380.625 756.062C379.771 756.062 379.083 756.344 378.562 756.906C378.042 757.469 377.625 758.24 377.312 759.219C377.021 760.198 376.823 761.354 376.719 762.688C376.615 764 376.562 765.417 376.562 766.938V772.875C376.562 773.771 376.51 774.646 376.406 775.5C376.302 776.354 376.073 777.115 375.719 777.781C375.385 778.448 374.896 778.99 374.25 779.406C373.625 779.802 372.771 780 371.688 780C370.625 780 369.781 779.802 369.156 779.406C368.531 778.99 368.052 778.448 367.719 777.781C367.385 777.115 367.167 776.354 367.062 775.5C366.979 774.646 366.938 773.771 366.938 772.875V755.812C366.938 754.917 366.969 754.052 367.031 753.219C367.094 752.365 367.281 751.615 367.594 750.969C367.906 750.302 368.375 749.771 369 749.375C369.646 748.958 370.542 748.75 371.688 748.75C372.833 748.75 373.729 748.948 374.375 749.344C375.021 749.719 375.5 750.177 375.812 750.719C376.146 751.26 376.354 751.833 376.438 752.438C376.521 753.042 376.562 753.562 376.562 754C376.729 753.396 376.99 752.781 377.344 752.156C377.698 751.531 378.146 750.969 378.688 750.469C379.25 749.969 379.917 749.562 380.688 749.25C381.458 748.917 382.354 748.75 383.375 748.75C384.521 748.75 385.667 748.938 386.812 749.312C387.958 749.688 388.99 750.312 389.906 751.188C390.823 752.062 391.562 753.208 392.125 754.625C392.708 756.042 393 757.792 393 759.875V772.875ZM408.75 769.188C408.75 769.521 408.781 769.948 408.844 770.469C408.906 770.969 409.052 771.469 409.281 771.969C409.51 772.448 409.844 772.865 410.281 773.219C410.74 773.573 411.354 773.75 412.125 773.75C413.042 773.75 413.76 773.646 414.281 773.438C414.802 773.229 415.188 772.948 415.438 772.594C415.688 772.219 415.844 771.792 415.906 771.312C415.969 770.812 416 770.292 416 769.75C416 769.479 416.042 769.177 416.125 768.844C416.229 768.49 416.458 768.167 416.812 767.875C417.167 767.562 417.688 767.312 418.375 767.125C419.083 766.917 420.042 766.812 421.25 766.812C422.354 766.812 423.208 766.938 423.812 767.188C424.417 767.438 424.854 767.74 425.125 768.094C425.417 768.427 425.583 768.781 425.625 769.156C425.667 769.51 425.688 769.792 425.688 770C425.688 771.333 425.479 772.51 425.062 773.531C424.667 774.531 424.125 775.406 423.438 776.156C422.75 776.885 421.958 777.5 421.062 778C420.167 778.5 419.208 778.896 418.188 779.188C417.188 779.479 416.167 779.688 415.125 779.812C414.083 779.938 413.083 780 412.125 780C410.479 780 408.885 779.781 407.344 779.344C405.802 778.906 404.427 778.219 403.219 777.281C402.031 776.344 401.073 775.146 400.344 773.688C399.615 772.208 399.25 770.438 399.25 768.375V761.062C399.25 759.083 399.479 757.406 399.938 756.031C400.417 754.656 401.031 753.51 401.781 752.594C402.531 751.677 403.375 750.969 404.312 750.469C405.25 749.948 406.198 749.562 407.156 749.312C408.115 749.062 409.021 748.906 409.875 748.844C410.75 748.781 411.5 748.75 412.125 748.75C413.979 748.75 415.594 748.906 416.969 749.219C418.365 749.531 419.562 749.948 420.562 750.469C421.562 750.99 422.385 751.594 423.031 752.281C423.698 752.948 424.219 753.656 424.594 754.406C424.969 755.156 425.229 755.906 425.375 756.656C425.542 757.406 425.625 758.104 425.625 758.75C425.625 759.083 425.604 759.479 425.562 759.938C425.521 760.375 425.354 760.802 425.062 761.219C424.792 761.615 424.354 761.958 423.75 762.25C423.146 762.542 422.292 762.688 421.188 762.688C420.792 762.688 420.292 762.677 419.688 762.656C419.104 762.615 418.531 762.5 417.969 762.312C417.406 762.125 416.927 761.833 416.531 761.438C416.135 761.042 415.938 760.479 415.938 759.75C415.938 759.25 415.906 758.771 415.844 758.312C415.802 757.833 415.656 757.417 415.406 757.062C415.156 756.708 414.771 756.427 414.25 756.219C413.75 755.99 413.042 755.875 412.125 755.875C411.354 755.875 410.74 756 410.281 756.25C409.844 756.5 409.51 756.812 409.281 757.188C409.052 757.562 408.906 757.958 408.844 758.375C408.781 758.792 408.75 759.167 408.75 759.5V769.188ZM457.125 762.188C457.125 762.521 457.104 762.917 457.062 763.375C457.021 763.812 456.854 764.24 456.562 764.656C456.292 765.052 455.854 765.396 455.25 765.688C454.646 765.979 453.792 766.125 452.688 766.125H440.25V769.125C440.25 769.625 440.312 770.146 440.438 770.688C440.562 771.229 440.771 771.729 441.062 772.188C441.375 772.646 441.781 773.021 442.281 773.312C442.781 773.604 443.396 773.75 444.125 773.75C444.958 773.75 445.594 773.656 446.031 773.469C446.49 773.26 446.844 773.01 447.094 772.719C447.365 772.427 447.604 772.115 447.812 771.781C448.021 771.448 448.292 771.135 448.625 770.844C448.979 770.552 449.458 770.312 450.062 770.125C450.688 769.917 451.542 769.812 452.625 769.812C453.146 769.812 453.646 769.854 454.125 769.938C454.625 770.021 455.062 770.177 455.438 770.406C455.812 770.635 456.115 770.958 456.344 771.375C456.573 771.771 456.688 772.292 456.688 772.938C456.688 774.292 456.26 775.427 455.406 776.344C454.552 777.24 453.479 777.958 452.188 778.5C450.896 779.042 449.49 779.427 447.969 779.656C446.469 779.885 445.062 780 443.75 780C442.021 779.979 440.375 779.76 438.812 779.344C437.25 778.927 435.865 778.26 434.656 777.344C433.469 776.427 432.521 775.229 431.812 773.75C431.104 772.271 430.75 770.458 430.75 768.312V761C430.75 759.021 430.979 757.344 431.438 755.969C431.917 754.594 432.531 753.448 433.281 752.531C434.031 751.615 434.875 750.906 435.812 750.406C436.75 749.885 437.698 749.5 438.656 749.25C439.615 749 440.521 748.844 441.375 748.781C442.25 748.719 443 748.688 443.625 748.688C445.729 748.688 447.521 748.875 449 749.25C450.5 749.625 451.75 750.115 452.75 750.719C453.75 751.323 454.542 752.021 455.125 752.812C455.708 753.604 456.146 754.427 456.438 755.281C456.729 756.115 456.917 756.969 457 757.844C457.083 758.698 457.125 759.5 457.125 760.25V762.188ZM440.25 761.438H448.062C448.062 760.458 448.031 759.594 447.969 758.844C447.927 758.073 447.771 757.427 447.5 756.906C447.25 756.385 446.844 755.99 446.281 755.719C445.74 755.448 444.958 755.312 443.938 755.312C443.083 755.312 442.406 755.448 441.906 755.719C441.427 755.99 441.062 756.333 440.812 756.75C440.562 757.146 440.406 757.573 440.344 758.031C440.281 758.49 440.25 758.896 440.25 759.25V761.438ZM483.812 753.438C483.812 755.062 483.406 756.25 482.594 757C481.802 757.75 480.667 758.125 479.188 758.125C478.979 758.125 478.677 758.146 478.281 758.188C477.906 758.208 477.5 758.292 477.062 758.438C476.625 758.562 476.177 758.76 475.719 759.031C475.281 759.281 474.875 759.635 474.5 760.094C474.125 760.531 473.823 761.094 473.594 761.781C473.365 762.469 473.25 763.292 473.25 764.25V773.188C473.25 774.042 473.198 774.875 473.094 775.688C473.01 776.5 472.802 777.229 472.469 777.875C472.135 778.5 471.656 779.01 471.031 779.406C470.406 779.802 469.562 780 468.5 780C467.458 780 466.635 779.802 466.031 779.406C465.427 779.01 464.958 778.5 464.625 777.875C464.312 777.229 464.104 776.5 464 775.688C463.917 774.875 463.875 774.042 463.875 773.188V755.688C463.875 754.812 463.917 753.969 464 753.156C464.104 752.323 464.312 751.583 464.625 750.938C464.958 750.292 465.427 749.781 466.031 749.406C466.635 749.01 467.458 748.812 468.5 748.812C469.562 748.812 470.375 749.052 470.938 749.531C471.521 749.99 471.948 750.594 472.219 751.344C472.49 752.073 472.646 752.896 472.688 753.812C472.729 754.708 472.75 755.583 472.75 756.438H473.25C473.542 755.271 473.927 754.219 474.406 753.281C474.885 752.323 475.417 751.521 476 750.875C476.583 750.208 477.208 749.698 477.875 749.344C478.542 748.99 479.208 748.812 479.875 748.812C480.688 748.812 481.344 748.906 481.844 749.094C482.365 749.26 482.771 749.531 483.062 749.906C483.354 750.281 483.552 750.76 483.656 751.344C483.76 751.927 483.812 752.625 483.812 753.438ZM492.562 748.75V743.25C492.562 742.375 492.604 741.521 492.688 740.688C492.792 739.854 493.01 739.115 493.344 738.469C493.677 737.802 494.156 737.271 494.781 736.875C495.406 736.458 496.25 736.25 497.312 736.25C498.354 736.25 499.188 736.458 499.812 736.875C500.438 737.271 500.906 737.802 501.219 738.469C501.552 739.115 501.76 739.854 501.844 740.688C501.948 741.521 502 742.375 502 743.25V748.75H504.562C505.104 748.75 505.646 748.781 506.188 748.844C506.729 748.885 507.208 749.031 507.625 749.281C508.062 749.531 508.406 749.906 508.656 750.406C508.927 750.906 509.062 751.604 509.062 752.5C509.062 753.354 508.927 754.031 508.656 754.531C508.406 755.031 508.062 755.406 507.625 755.656C507.208 755.906 506.729 756.073 506.188 756.156C505.646 756.219 505.104 756.25 504.562 756.25H502V767.188C502 767.604 502.01 768.052 502.031 768.531C502.073 768.99 502.188 769.417 502.375 769.812C502.562 770.208 502.844 770.542 503.219 770.812C503.594 771.062 504.125 771.188 504.812 771.188C505.562 771.188 506.198 771.25 506.719 771.375C507.26 771.479 507.698 771.677 508.031 771.969C508.385 772.26 508.646 772.667 508.812 773.188C508.979 773.708 509.062 774.375 509.062 775.188C509.062 776.021 508.865 776.74 508.469 777.344C508.094 777.948 507.583 778.448 506.938 778.844C506.292 779.24 505.542 779.531 504.688 779.719C503.833 779.906 502.938 780 502 780C500.521 780 499.25 779.844 498.188 779.531C497.146 779.219 496.271 778.781 495.562 778.219C494.875 777.635 494.323 776.948 493.906 776.156C493.51 775.344 493.208 774.438 493 773.438C492.812 772.438 492.688 771.365 492.625 770.219C492.583 769.052 492.562 767.833 492.562 766.562V756.25H490.812C490.271 756.25 489.729 756.219 489.188 756.156C488.667 756.073 488.198 755.906 487.781 755.656C487.365 755.406 487.021 755.031 486.75 754.531C486.5 754.031 486.375 753.354 486.375 752.5C486.375 751.604 486.5 750.906 486.75 750.406C487.021 749.906 487.365 749.531 487.781 749.281C488.198 749.031 488.667 748.885 489.188 748.844C489.729 748.781 490.271 748.75 490.812 748.75H492.562ZM539.875 748.625C539.875 746.625 540.167 744.927 540.75 743.531C541.333 742.115 542.073 740.938 542.969 740C543.885 739.062 544.885 738.333 545.969 737.812C547.073 737.271 548.135 736.865 549.156 736.594C550.198 736.323 551.135 736.156 551.969 736.094C552.802 736.031 553.417 736 553.812 736H554.875C555.271 736 555.885 736.031 556.719 736.094C557.552 736.156 558.479 736.323 559.5 736.594C560.521 736.865 561.573 737.271 562.656 737.812C563.76 738.333 564.75 739.062 565.625 740C566.521 740.938 567.25 742.115 567.812 743.531C568.396 744.927 568.688 746.625 568.688 748.625V767.312C568.688 769.375 568.396 771.125 567.812 772.562C567.25 774 566.521 775.198 565.625 776.156C564.75 777.115 563.76 777.875 562.656 778.438C561.573 778.979 560.521 779.385 559.5 779.656C558.479 779.927 557.552 780.094 556.719 780.156C555.885 780.219 555.271 780.25 554.875 780.25H553.812C553.417 780.25 552.802 780.219 551.969 780.156C551.135 780.094 550.198 779.927 549.156 779.656C548.135 779.385 547.073 778.979 545.969 778.438C544.885 777.875 543.885 777.115 542.969 776.156C542.073 775.198 541.333 774 540.75 772.562C540.167 771.125 539.875 769.375 539.875 767.312V748.625ZM550.25 768.5C550.292 769.271 550.469 769.948 550.781 770.531C551.052 771.052 551.458 771.521 552 771.938C552.562 772.354 553.354 772.562 554.375 772.562C555.375 772.562 556.146 772.354 556.688 771.938C557.229 771.521 557.635 771.052 557.906 770.531C558.198 769.948 558.375 769.271 558.438 768.5V748.125C558.375 747.375 558.198 746.698 557.906 746.094C557.635 745.594 557.229 745.135 556.688 744.719C556.146 744.281 555.375 744.062 554.375 744.062C553.354 744.062 552.562 744.281 552 744.719C551.458 745.135 551.052 745.594 550.781 746.094C550.469 746.698 550.292 747.375 550.25 748.125V768.5ZM602.062 772.875C602.062 773.771 602.01 774.646 601.906 775.5C601.802 776.354 601.573 777.115 601.219 777.781C600.885 778.448 600.396 778.99 599.75 779.406C599.125 779.802 598.271 780 597.188 780C596.125 780 595.281 779.802 594.656 779.406C594.031 778.99 593.552 778.448 593.219 777.781C592.885 777.115 592.667 776.354 592.562 775.5C592.479 774.646 592.438 773.771 592.438 772.875V760.688C592.438 760.104 592.406 759.531 592.344 758.969C592.302 758.406 592.188 757.917 592 757.5C591.812 757.062 591.531 756.719 591.156 756.469C590.802 756.198 590.312 756.062 589.688 756.062C588.833 756.062 588.146 756.344 587.625 756.906C587.104 757.469 586.688 758.24 586.375 759.219C586.083 760.198 585.885 761.354 585.781 762.688C585.677 764 585.625 765.417 585.625 766.938V772.875C585.625 773.771 585.573 774.646 585.469 775.5C585.365 776.354 585.135 777.115 584.781 777.781C584.448 778.448 583.958 778.99 583.312 779.406C582.688 779.802 581.833 780 580.75 780C579.688 780 578.844 779.802 578.219 779.406C577.594 778.99 577.115 778.448 576.781 777.781C576.448 777.115 576.229 776.354 576.125 775.5C576.042 774.646 576 773.771 576 772.875V755.812C576 754.917 576.031 754.052 576.094 753.219C576.156 752.365 576.344 751.615 576.656 750.969C576.969 750.302 577.438 749.771 578.062 749.375C578.708 748.958 579.604 748.75 580.75 748.75C581.896 748.75 582.792 748.948 583.438 749.344C584.083 749.719 584.562 750.177 584.875 750.719C585.208 751.26 585.417 751.833 585.5 752.438C585.583 753.042 585.625 753.562 585.625 754C585.792 753.396 586.052 752.781 586.406 752.156C586.76 751.531 587.208 750.969 587.75 750.469C588.312 749.969 588.979 749.562 589.75 749.25C590.521 748.917 591.417 748.75 592.438 748.75C593.583 748.75 594.729 748.938 595.875 749.312C597.021 749.688 598.052 750.312 598.969 751.188C599.885 752.062 600.625 753.208 601.188 754.625C601.771 756.042 602.062 757.792 602.062 759.875V772.875ZM634.938 762.188C634.938 762.521 634.917 762.917 634.875 763.375C634.833 763.812 634.667 764.24 634.375 764.656C634.104 765.052 633.667 765.396 633.062 765.688C632.458 765.979 631.604 766.125 630.5 766.125H618.062V769.125C618.062 769.625 618.125 770.146 618.25 770.688C618.375 771.229 618.583 771.729 618.875 772.188C619.188 772.646 619.594 773.021 620.094 773.312C620.594 773.604 621.208 773.75 621.938 773.75C622.771 773.75 623.406 773.656 623.844 773.469C624.302 773.26 624.656 773.01 624.906 772.719C625.177 772.427 625.417 772.115 625.625 771.781C625.833 771.448 626.104 771.135 626.438 770.844C626.792 770.552 627.271 770.312 627.875 770.125C628.5 769.917 629.354 769.812 630.438 769.812C630.958 769.812 631.458 769.854 631.938 769.938C632.438 770.021 632.875 770.177 633.25 770.406C633.625 770.635 633.927 770.958 634.156 771.375C634.385 771.771 634.5 772.292 634.5 772.938C634.5 774.292 634.073 775.427 633.219 776.344C632.365 777.24 631.292 777.958 630 778.5C628.708 779.042 627.302 779.427 625.781 779.656C624.281 779.885 622.875 780 621.562 780C619.833 779.979 618.188 779.76 616.625 779.344C615.062 778.927 613.677 778.26 612.469 777.344C611.281 776.427 610.333 775.229 609.625 773.75C608.917 772.271 608.562 770.458 608.562 768.312V761C608.562 759.021 608.792 757.344 609.25 755.969C609.729 754.594 610.344 753.448 611.094 752.531C611.844 751.615 612.688 750.906 613.625 750.406C614.562 749.885 615.51 749.5 616.469 749.25C617.427 749 618.333 748.844 619.188 748.781C620.062 748.719 620.812 748.688 621.438 748.688C623.542 748.688 625.333 748.875 626.812 749.25C628.312 749.625 629.562 750.115 630.562 750.719C631.562 751.323 632.354 752.021 632.938 752.812C633.521 753.604 633.958 754.427 634.25 755.281C634.542 756.115 634.729 756.969 634.812 757.844C634.896 758.698 634.938 759.5 634.938 760.25V762.188ZM618.062 761.438H625.875C625.875 760.458 625.844 759.594 625.781 758.844C625.74 758.073 625.583 757.427 625.312 756.906C625.062 756.385 624.656 755.99 624.094 755.719C623.552 755.448 622.771 755.312 621.75 755.312C620.896 755.312 620.219 755.448 619.719 755.719C619.24 755.99 618.875 756.333 618.625 756.75C618.375 757.146 618.219 757.573 618.156 758.031C618.094 758.49 618.062 758.896 618.062 759.25V761.438ZM63.375 811C65.6667 811 67.6354 811.26 69.2812 811.781C70.9479 812.302 72.3438 812.979 73.4688 813.812C74.6146 814.646 75.5312 815.594 76.2188 816.656C76.9062 817.698 77.4271 818.76 77.7812 819.844C78.1562 820.927 78.3958 821.969 78.5 822.969C78.625 823.969 78.6875 824.833 78.6875 825.562C78.6875 825.875 78.6562 826.26 78.5938 826.719C78.5521 827.156 78.375 827.583 78.0625 828C77.75 828.417 77.25 828.771 76.5625 829.062C75.8958 829.354 74.9375 829.5 73.6875 829.5C73.2708 829.5 72.75 829.479 72.125 829.438C71.5 829.375 70.8958 829.24 70.3125 829.031C69.7292 828.802 69.2292 828.49 68.8125 828.094C68.3958 827.677 68.1875 827.104 68.1875 826.375C68.1875 825.25 68.1146 824.24 67.9688 823.344C67.8438 822.448 67.6042 821.688 67.25 821.062C66.8958 820.438 66.4062 819.958 65.7812 819.625C65.1562 819.292 64.3542 819.125 63.375 819.125C62.3542 819.125 61.5625 819.344 61 819.781C60.4583 820.198 60.0625 820.656 59.8125 821.156C59.5208 821.76 59.3542 822.438 59.3125 823.188V843C59.3542 843.917 59.5208 844.719 59.8125 845.406C60.0625 846.01 60.4583 846.562 61 847.062C61.5625 847.562 62.3542 847.812 63.375 847.812C64.3542 847.812 65.1562 847.615 65.7812 847.219C66.4062 846.802 66.8958 846.25 67.25 845.562C67.6042 844.875 67.8438 844.083 67.9688 843.188C68.1146 842.292 68.1875 841.354 68.1875 840.375C68.1875 840.062 68.2396 839.74 68.3438 839.406C68.4479 839.073 68.6875 838.771 69.0625 838.5C69.4375 838.208 69.9896 837.969 70.7188 837.781C71.4479 837.594 72.4375 837.5 73.6875 837.5C74.9375 837.5 75.8958 837.646 76.5625 837.938C77.25 838.208 77.75 838.531 78.0625 838.906C78.375 839.26 78.5521 839.615 78.5938 839.969C78.6562 840.302 78.6875 840.521 78.6875 840.625C78.6875 842.917 78.3021 844.969 77.5312 846.781C76.7604 848.573 75.6667 850.094 74.25 851.344C72.8542 852.594 71.1771 853.552 69.2188 854.219C67.2812 854.865 65.1458 855.188 62.8125 855.188C62.4375 855.188 61.8229 855.156 60.9688 855.094C60.1354 855.031 59.1979 854.865 58.1562 854.594C57.1146 854.323 56.0417 853.917 54.9375 853.375C53.8333 852.833 52.8229 852.083 51.9062 851.125C51.0104 850.146 50.2708 848.938 49.6875 847.5C49.1042 846.042 48.8125 844.271 48.8125 842.188V824.75C48.8125 823.042 49.0208 821.531 49.4375 820.219C49.8542 818.906 50.3958 817.771 51.0625 816.812C51.75 815.833 52.5312 815.021 53.4062 814.375C54.2812 813.708 55.1771 813.156 56.0938 812.719C58.2188 811.719 60.6458 811.146 63.375 811ZM83.125 835.5C83.125 833.583 83.3854 831.958 83.9062 830.625C84.4271 829.292 85.0938 828.177 85.9062 827.281C86.7396 826.385 87.6562 825.688 88.6562 825.188C89.6771 824.688 90.6771 824.312 91.6562 824.062C92.6354 823.812 93.5417 823.656 94.375 823.594C95.2292 823.531 95.8958 823.5 96.375 823.5C96.8542 823.5 97.5104 823.531 98.3438 823.594C99.1771 823.656 100.062 823.812 101 824.062C101.958 824.312 102.917 824.688 103.875 825.188C104.854 825.688 105.729 826.385 106.5 827.281C107.292 828.177 107.938 829.292 108.438 830.625C108.938 831.958 109.188 833.583 109.188 835.5V843.25C109.188 845.167 108.938 846.792 108.438 848.125C107.938 849.458 107.292 850.573 106.5 851.469C105.729 852.365 104.854 853.062 103.875 853.562C102.917 854.062 101.958 854.438 101 854.688C100.062 854.938 99.1771 855.094 98.3438 855.156C97.5104 855.219 96.8542 855.25 96.375 855.25C95.8958 855.25 95.2292 855.219 94.375 855.156C93.5417 855.094 92.6354 854.938 91.6562 854.688C90.6771 854.438 89.6771 854.062 88.6562 853.562C87.6562 853.062 86.7396 852.365 85.9062 851.469C85.0938 850.573 84.4271 849.458 83.9062 848.125C83.3854 846.792 83.125 845.167 83.125 843.25V835.5ZM92.75 845.438C92.7708 846.042 92.9167 846.573 93.1875 847.031C93.4167 847.448 93.7708 847.823 94.25 848.156C94.75 848.469 95.4583 848.625 96.375 848.625C97.25 848.625 97.9167 848.469 98.375 848.156C98.8542 847.823 99.2083 847.448 99.4375 847.031C99.6875 846.573 99.8333 846.042 99.875 845.438V834.125C99.8333 833.5 99.6875 832.927 99.4375 832.406C99.2083 831.99 98.8542 831.604 98.375 831.25C97.9167 830.875 97.25 830.688 96.375 830.688C95.4583 830.688 94.75 830.875 94.25 831.25C93.7708 831.604 93.4167 831.99 93.1875 832.406C92.9167 832.927 92.7708 833.5 92.75 834.125V845.438ZM116 818.188C116 817.312 116.042 816.458 116.125 815.625C116.229 814.792 116.448 814.052 116.781 813.406C117.115 812.76 117.594 812.24 118.219 811.844C118.844 811.448 119.688 811.25 120.75 811.25C121.833 811.25 122.688 811.448 123.312 811.844C123.938 812.24 124.406 812.76 124.719 813.406C125.052 814.052 125.26 814.792 125.344 815.625C125.448 816.458 125.5 817.312 125.5 818.188V848C125.5 848.875 125.448 849.74 125.344 850.594C125.26 851.427 125.052 852.177 124.719 852.844C124.406 853.49 123.938 854.01 123.312 854.406C122.688 854.802 121.833 855 120.75 855C119.688 855 118.844 854.802 118.219 854.406C117.594 854.01 117.115 853.49 116.781 852.844C116.448 852.177 116.229 851.427 116.125 850.594C116.042 849.74 116 848.875 116 848V818.188ZM132.375 835.5C132.375 833.583 132.635 831.958 133.156 830.625C133.677 829.292 134.344 828.177 135.156 827.281C135.99 826.385 136.906 825.688 137.906 825.188C138.927 824.688 139.927 824.312 140.906 824.062C141.885 823.812 142.792 823.656 143.625 823.594C144.479 823.531 145.146 823.5 145.625 823.5C146.104 823.5 146.76 823.531 147.594 823.594C148.427 823.656 149.312 823.812 150.25 824.062C151.208 824.312 152.167 824.688 153.125 825.188C154.104 825.688 154.979 826.385 155.75 827.281C156.542 828.177 157.188 829.292 157.688 830.625C158.188 831.958 158.438 833.583 158.438 835.5V843.25C158.438 845.167 158.188 846.792 157.688 848.125C157.188 849.458 156.542 850.573 155.75 851.469C154.979 852.365 154.104 853.062 153.125 853.562C152.167 854.062 151.208 854.438 150.25 854.688C149.312 854.938 148.427 855.094 147.594 855.156C146.76 855.219 146.104 855.25 145.625 855.25C145.146 855.25 144.479 855.219 143.625 855.156C142.792 855.094 141.885 854.938 140.906 854.688C139.927 854.438 138.927 854.062 137.906 853.562C136.906 853.062 135.99 852.365 135.156 851.469C134.344 850.573 133.677 849.458 133.156 848.125C132.635 846.792 132.375 845.167 132.375 843.25V835.5ZM142 845.438C142.021 846.042 142.167 846.573 142.438 847.031C142.667 847.448 143.021 847.823 143.5 848.156C144 848.469 144.708 848.625 145.625 848.625C146.5 848.625 147.167 848.469 147.625 848.156C148.104 847.823 148.458 847.448 148.688 847.031C148.938 846.573 149.083 846.042 149.125 845.438V834.125C149.083 833.5 148.938 832.927 148.688 832.406C148.458 831.99 148.104 831.604 147.625 831.25C147.167 830.875 146.5 830.688 145.625 830.688C144.708 830.688 144 830.875 143.5 831.25C143.021 831.604 142.667 831.99 142.438 832.406C142.167 832.927 142.021 833.5 142 834.125V845.438ZM184.938 828.438C184.938 830.062 184.531 831.25 183.719 832C182.927 832.75 181.792 833.125 180.312 833.125C180.104 833.125 179.802 833.146 179.406 833.188C179.031 833.208 178.625 833.292 178.188 833.438C177.75 833.562 177.302 833.76 176.844 834.031C176.406 834.281 176 834.635 175.625 835.094C175.25 835.531 174.948 836.094 174.719 836.781C174.49 837.469 174.375 838.292 174.375 839.25V848.188C174.375 849.042 174.323 849.875 174.219 850.688C174.135 851.5 173.927 852.229 173.594 852.875C173.26 853.5 172.781 854.01 172.156 854.406C171.531 854.802 170.688 855 169.625 855C168.583 855 167.76 854.802 167.156 854.406C166.552 854.01 166.083 853.5 165.75 852.875C165.438 852.229 165.229 851.5 165.125 850.688C165.042 849.875 165 849.042 165 848.188V830.688C165 829.812 165.042 828.969 165.125 828.156C165.229 827.323 165.438 826.583 165.75 825.938C166.083 825.292 166.552 824.781 167.156 824.406C167.76 824.01 168.583 823.812 169.625 823.812C170.688 823.812 171.5 824.052 172.062 824.531C172.646 824.99 173.073 825.594 173.344 826.344C173.615 827.073 173.771 827.896 173.812 828.812C173.854 829.708 173.875 830.583 173.875 831.438H174.375C174.667 830.271 175.052 829.219 175.531 828.281C176.01 827.323 176.542 826.521 177.125 825.875C177.708 825.208 178.333 824.698 179 824.344C179.667 823.99 180.333 823.812 181 823.812C181.812 823.812 182.469 823.906 182.969 824.094C183.49 824.26 183.896 824.531 184.188 824.906C184.479 825.281 184.677 825.76 184.781 826.344C184.885 826.927 184.938 827.625 184.938 828.438ZM197.688 831.938C197.688 832.354 197.823 832.74 198.094 833.094C198.365 833.448 198.729 833.792 199.188 834.125C199.667 834.438 200.208 834.75 200.812 835.062C201.438 835.375 202.083 835.688 202.75 836C203.771 836.5 204.812 837.042 205.875 837.625C206.938 838.188 207.906 838.854 208.781 839.625C209.656 840.396 210.365 841.292 210.906 842.312C211.469 843.312 211.75 844.5 211.75 845.875C211.75 847.125 211.562 848.229 211.188 849.188C210.833 850.146 210.354 850.979 209.75 851.688C209.146 852.375 208.438 852.948 207.625 853.406C206.833 853.865 205.99 854.229 205.094 854.5C204.219 854.771 203.323 854.958 202.406 855.062C201.49 855.188 200.625 855.25 199.812 855.25C198.208 855.25 196.812 855.115 195.625 854.844C194.438 854.573 193.417 854.219 192.562 853.781C191.708 853.323 191 852.812 190.438 852.25C189.896 851.667 189.469 851.062 189.156 850.438C188.844 849.812 188.625 849.198 188.5 848.594C188.375 847.969 188.312 847.396 188.312 846.875C188.312 845.625 188.656 844.708 189.344 844.125C190.052 843.542 191.125 843.25 192.562 843.25C193.604 843.25 194.458 843.531 195.125 844.094C195.792 844.656 196.146 845.562 196.188 846.812C196.208 847.229 196.323 847.562 196.531 847.812C196.76 848.062 197.042 848.271 197.375 848.438C197.729 848.583 198.115 848.688 198.531 848.75C198.948 848.792 199.354 848.812 199.75 848.812C200.562 848.812 201.219 848.604 201.719 848.188C202.24 847.75 202.5 847.188 202.5 846.5C202.5 845.917 202.323 845.375 201.969 844.875C201.635 844.354 201.188 843.875 200.625 843.438C200.062 843 199.417 842.583 198.688 842.188C197.979 841.771 197.25 841.354 196.5 840.938C195.562 840.438 194.615 839.906 193.656 839.344C192.719 838.781 191.865 838.156 191.094 837.469C190.323 836.781 189.698 836.01 189.219 835.156C188.74 834.281 188.5 833.292 188.5 832.188C188.5 830.562 188.76 829.208 189.281 828.125C189.823 827.021 190.604 826.135 191.625 825.469C192.646 824.781 193.885 824.292 195.344 824C196.823 823.708 198.5 823.542 200.375 823.5H200.875C202.562 823.5 203.99 823.646 205.156 823.938C206.344 824.229 207.323 824.615 208.094 825.094C208.885 825.552 209.5 826.073 209.938 826.656C210.396 827.24 210.729 827.833 210.938 828.438C211.167 829.021 211.302 829.583 211.344 830.125C211.406 830.667 211.438 831.125 211.438 831.5C211.438 832.125 211.302 832.646 211.031 833.062C210.781 833.458 210.438 833.781 210 834.031C209.583 834.26 209.104 834.427 208.562 834.531C208.021 834.615 207.458 834.667 206.875 834.688C206.375 834.688 205.917 834.604 205.5 834.438C205.104 834.271 204.76 834.062 204.469 833.812C204.177 833.562 203.948 833.281 203.781 832.969C203.635 832.656 203.562 832.354 203.562 832.062C203.521 831.271 203.198 830.667 202.594 830.25C202.01 829.833 201.292 829.625 200.438 829.625C200.083 829.625 199.74 829.667 199.406 829.75C199.094 829.812 198.802 829.938 198.531 830.125C198.281 830.292 198.073 830.521 197.906 830.812C197.76 831.104 197.688 831.479 197.688 831.938ZM246.875 840C246.292 840 245.729 839.969 245.188 839.906C244.646 839.823 244.167 839.656 243.75 839.406C243.333 839.135 243 838.76 242.75 838.281C242.5 837.781 242.375 837.104 242.375 836.25C242.375 835.333 242.5 834.615 242.75 834.094C243 833.573 243.333 833.188 243.75 832.938C244.167 832.688 244.646 832.531 245.188 832.469C245.729 832.406 246.292 832.375 246.875 832.375H260.688C261.208 832.375 261.74 832.406 262.281 832.469C262.823 832.531 263.302 832.688 263.719 832.938C264.156 833.188 264.51 833.573 264.781 834.094C265.052 834.615 265.188 835.333 265.188 836.25C265.188 837.104 265.052 837.781 264.781 838.281C264.51 838.76 264.156 839.135 263.719 839.406C263.302 839.656 262.823 839.823 262.281 839.906C261.74 839.969 261.208 840 260.688 840H248.625H246.875Z" fill="#0CCE6B"/>
<path d="M619.408 468.656V584.806C619.408 596.247 610.134 605.521 598.694 605.521V605.521C587.253 605.521 577.979 614.796 577.979 626.236V654.29C577.979 656.864 574.921 658.211 573.022 656.474L525.794 613.278C520.339 608.288 513.214 605.521 505.822 605.521H442.593C426.249 605.521 413 592.272 413 575.929V476.445C413 461.139 424.79 448 438.954 442.201C456.345 435.082 474.405 423.239 474.405 408.731" stroke="#0CCE6B" stroke-width="23.6741"/>
<rect x="440.373" y="371.74" width="152.402" height="22.1944" rx="11.0972" fill="#0CCE6B" stroke="#0CCE6B" stroke-width="1.47963"/>
<path d="M441.113 484.931C451.435 484.913 459.414 483.567 468.008 480.494C482.432 475.338 498.372 474.817 511.611 482.52L518.485 486.521C532.483 494.666 549.679 493.873 565.226 489.338C580.331 484.931 592.035 484.931 592.035 484.931" stroke="#0CCE6B" stroke-width="23.6741"/>
<circle cx="473.665" cy="545.596" r="17.7556" fill="#0CCE6B"/>
<circle cx="558.004" cy="545.596" r="17.7556" fill="#0CCE6B"/>
<path d="M619.408 124.656V240.806C619.408 252.247 610.134 261.521 598.694 261.521V261.521C587.253 261.521 577.979 270.796 577.979 282.236V310.29C577.979 312.864 574.921 314.211 573.022 312.474L525.794 269.278C520.339 264.288 513.214 261.521 505.822 261.521H442.593C426.249 261.521 413 248.272 413 231.929V132.445C413 117.139 424.79 104 438.954 98.2013C456.345 91.0824 474.405 79.2387 474.405 64.7306" stroke="#080708" stroke-width="23.6741"/>
<rect x="440.373" y="27.7398" width="152.402" height="22.1944" rx="11.0972" fill="#080708" stroke="#080708" stroke-width="1.47963"/>
<path d="M441.113 140.931C451.435 140.913 459.414 139.567 468.008 136.494C482.432 131.338 498.372 130.817 511.611 138.52L518.485 142.521C532.483 150.666 549.679 149.873 565.226 145.338C580.331 140.931 592.035 140.931 592.035 140.931" stroke="#080708" stroke-width="23.6741"/>
<circle cx="473.665" cy="201.596" r="17.7556" fill="#080708"/>
<circle cx="558.004" cy="201.596" r="17.7556" fill="#080708"/>
<path d="M484.82 836.141C484.547 836.141 484.28 836.121 484.02 836.082C483.759 836.043 483.531 835.965 483.336 835.848C483.141 835.717 482.978 835.535 482.848 835.301C482.73 835.066 482.672 834.747 482.672 834.344C482.672 833.901 482.73 833.556 482.848 833.309C482.978 833.061 483.141 832.879 483.336 832.762C483.531 832.645 483.759 832.573 484.02 832.547C484.28 832.521 484.547 832.508 484.82 832.508H487.359L487.789 829.969C487.802 829.839 487.835 829.669 487.887 829.461C487.952 829.253 488.043 829.051 488.16 828.855C488.29 828.66 488.453 828.491 488.648 828.348C488.857 828.204 489.117 828.133 489.43 828.133C489.677 828.133 489.924 828.152 490.172 828.191C490.419 828.23 490.634 828.309 490.816 828.426C491.012 828.543 491.168 828.712 491.285 828.934C491.402 829.155 491.461 829.448 491.461 829.812C491.461 829.852 491.454 829.904 491.441 829.969C491.441 830.021 491.428 830.138 491.402 830.32C491.376 830.49 491.331 830.75 491.266 831.102C491.214 831.44 491.135 831.909 491.031 832.508H494.352L494.781 829.969C494.794 829.839 494.827 829.669 494.879 829.461C494.944 829.253 495.035 829.051 495.152 828.855C495.283 828.66 495.445 828.491 495.641 828.348C495.849 828.204 496.109 828.133 496.422 828.133C496.669 828.133 496.917 828.152 497.164 828.191C497.411 828.23 497.626 828.309 497.809 828.426C498.004 828.543 498.16 828.712 498.277 828.934C498.395 829.155 498.453 829.448 498.453 829.812C498.453 829.852 498.447 829.904 498.434 829.969C498.434 830.021 498.421 830.138 498.395 830.32C498.368 830.49 498.323 830.75 498.258 831.102C498.206 831.44 498.128 831.909 498.023 832.508H499.703C499.951 832.508 500.204 832.521 500.465 832.547C500.725 832.573 500.953 832.645 501.148 832.762C501.357 832.879 501.526 833.061 501.656 833.309C501.786 833.556 501.852 833.901 501.852 834.344C501.852 834.747 501.786 835.066 501.656 835.301C501.526 835.535 501.357 835.717 501.148 835.848C500.953 835.965 500.725 836.043 500.465 836.082C500.204 836.121 499.951 836.141 499.703 836.141H497.438L496.656 840.516H498.297C498.544 840.516 498.798 840.529 499.059 840.555C499.319 840.581 499.547 840.652 499.742 840.77C499.951 840.887 500.12 841.069 500.25 841.316C500.38 841.564 500.445 841.909 500.445 842.352C500.445 842.768 500.38 843.094 500.25 843.328C500.12 843.562 499.951 843.745 499.742 843.875C499.547 843.992 499.319 844.07 499.059 844.109C498.798 844.135 498.544 844.148 498.297 844.148H496.031L495.719 846.18C495.654 846.557 495.576 846.909 495.484 847.234C495.406 847.56 495.296 847.846 495.152 848.094C495.022 848.328 494.853 848.517 494.645 848.66C494.449 848.803 494.208 848.875 493.922 848.875C493.674 848.875 493.427 848.862 493.18 848.836C492.945 848.81 492.73 848.745 492.535 848.641C492.34 848.523 492.184 848.361 492.066 848.152C491.949 847.944 491.891 847.651 491.891 847.273C491.891 847.234 491.891 847.182 491.891 847.117C491.904 847.039 491.923 846.896 491.949 846.688C491.975 846.479 492.021 846.18 492.086 845.789C492.151 845.385 492.242 844.839 492.359 844.148H489.039L488.727 846.18C488.661 846.557 488.583 846.909 488.492 847.234C488.414 847.56 488.303 847.846 488.16 848.094C488.03 848.328 487.861 848.517 487.652 848.66C487.457 848.803 487.216 848.875 486.93 848.875C486.682 848.875 486.435 848.862 486.188 848.836C485.953 848.81 485.738 848.745 485.543 848.641C485.348 848.523 485.191 848.361 485.074 848.152C484.957 847.944 484.898 847.651 484.898 847.273C484.898 847.234 484.898 847.182 484.898 847.117C484.911 847.039 484.931 846.896 484.957 846.688C484.983 846.479 485.029 846.18 485.094 845.789C485.159 845.385 485.25 844.839 485.367 844.148H483.453C483.18 844.148 482.913 844.135 482.652 844.109C482.392 844.07 482.164 843.992 481.969 843.875C481.773 843.745 481.611 843.562 481.48 843.328C481.363 843.094 481.305 842.768 481.305 842.352C481.305 841.909 481.363 841.564 481.48 841.316C481.611 841.069 481.773 840.887 481.969 840.77C482.164 840.652 482.392 840.581 482.652 840.555C482.913 840.529 483.18 840.516 483.453 840.516H485.953L486.734 836.141H484.82ZM489.664 840.516H492.945L493.727 836.141H490.445L489.664 840.516ZM505.758 832.469C505.758 831.206 505.934 830.132 506.285 829.246C506.65 828.348 507.112 827.605 507.672 827.02C508.232 826.434 508.85 825.971 509.527 825.633C510.204 825.294 510.862 825.04 511.5 824.871C512.151 824.702 512.73 824.598 513.238 824.559C513.759 824.52 514.143 824.5 514.391 824.5H515.055C515.302 824.5 515.686 824.52 516.207 824.559C516.728 824.598 517.301 824.702 517.926 824.871C518.564 825.04 519.215 825.294 519.879 825.633C520.556 825.971 521.168 826.434 521.715 827.02C522.275 827.605 522.73 828.348 523.082 829.246C523.434 830.132 523.609 831.206 523.609 832.469V843.992C523.609 845.294 523.434 846.401 523.082 847.312C522.73 848.224 522.275 848.986 521.715 849.598C521.168 850.197 520.556 850.665 519.879 851.004C519.215 851.342 518.564 851.603 517.926 851.785C517.301 851.954 516.728 852.059 516.207 852.098C515.686 852.137 515.302 852.156 515.055 852.156H514.391C514.143 852.156 513.759 852.137 513.238 852.098C512.73 852.059 512.151 851.954 511.5 851.785C510.862 851.603 510.204 851.342 509.527 851.004C508.85 850.665 508.232 850.197 507.672 849.598C507.112 848.986 506.65 848.224 506.285 847.312C505.934 846.401 505.758 845.294 505.758 843.992V832.469ZM512.164 845.008C512.203 845.464 512.327 845.867 512.535 846.219C512.704 846.518 512.958 846.798 513.297 847.059C513.648 847.306 514.13 847.43 514.742 847.43C515.341 847.43 515.81 847.306 516.148 847.059C516.487 846.798 516.741 846.518 516.91 846.219C517.105 845.867 517.229 845.464 517.281 845.008V831.805C517.229 831.349 517.105 830.945 516.91 830.594C516.741 830.294 516.487 830.021 516.148 829.773C515.81 829.513 515.341 829.383 514.742 829.383C514.13 829.383 513.648 829.513 513.297 829.773C512.958 830.021 512.704 830.294 512.535 830.594C512.327 830.945 512.203 831.349 512.164 831.805V845.008ZM533.219 845.281C533.245 845.685 533.349 846.043 533.531 846.355C533.688 846.629 533.928 846.876 534.254 847.098C534.579 847.319 535.055 847.43 535.68 847.43C536.266 847.43 536.715 847.319 537.027 847.098C537.353 846.876 537.587 846.629 537.73 846.355C537.9 846.043 537.997 845.685 538.023 845.281V841.57C537.997 841.128 537.9 840.737 537.73 840.398C537.587 840.099 537.353 839.832 537.027 839.598C536.715 839.35 536.266 839.227 535.68 839.227C535.367 839.227 535.094 839.259 534.859 839.324C534.638 839.389 534.436 839.48 534.254 839.598C534.085 839.702 533.941 839.826 533.824 839.969C533.707 840.112 533.609 840.255 533.531 840.398C533.349 840.737 533.245 841.128 533.219 841.57V845.281ZM535.68 824.5C535.979 824.5 536.376 824.52 536.871 824.559C537.379 824.585 537.919 824.669 538.492 824.812C539.065 824.956 539.638 825.177 540.211 825.477C540.797 825.776 541.324 826.199 541.793 826.746C542.262 827.293 542.639 827.983 542.926 828.816C543.225 829.637 543.375 830.646 543.375 831.844V832.352C543.375 833.159 543.323 833.849 543.219 834.422C543.115 834.982 542.965 835.457 542.77 835.848C542.574 836.238 542.34 836.564 542.066 836.824C541.793 837.085 541.487 837.312 541.148 837.508C541.487 837.703 541.812 837.931 542.125 838.191C542.451 838.452 542.73 838.777 542.965 839.168C543.212 839.559 543.408 840.04 543.551 840.613C543.694 841.173 543.766 841.857 543.766 842.664V844.812C543.766 846.01 543.609 847.026 543.297 847.859C542.984 848.68 542.574 849.363 542.066 849.91C541.572 850.457 541.018 850.88 540.406 851.18C539.794 851.479 539.189 851.701 538.59 851.844C537.991 851.987 537.431 852.072 536.91 852.098C536.389 852.137 535.979 852.156 535.68 852.156C535.38 852.156 534.964 852.137 534.43 852.098C533.909 852.072 533.336 851.987 532.711 851.844C532.099 851.701 531.474 851.479 530.836 851.18C530.211 850.88 529.638 850.457 529.117 849.91C528.596 849.363 528.173 848.68 527.848 847.859C527.522 847.026 527.359 846.01 527.359 844.812V842.664C527.359 841.857 527.431 841.173 527.574 840.613C527.717 840.04 527.906 839.559 528.141 839.168C528.388 838.777 528.668 838.452 528.98 838.191C529.306 837.931 529.638 837.703 529.977 837.508C529.638 837.312 529.332 837.085 529.059 836.824C528.785 836.564 528.551 836.238 528.355 835.848C528.16 835.457 528.01 834.982 527.906 834.422C527.802 833.849 527.75 833.159 527.75 832.352V831.844C527.75 830.646 527.9 829.637 528.199 828.816C528.512 827.983 528.909 827.293 529.391 826.746C529.885 826.199 530.432 825.776 531.031 825.477C531.643 825.177 532.242 824.956 532.828 824.812C533.414 824.669 533.961 824.585 534.469 824.559C534.977 824.52 535.38 824.5 535.68 824.5ZM533.219 833.406C533.245 833.81 533.349 834.168 533.531 834.48C533.688 834.754 533.928 835.001 534.254 835.223C534.579 835.444 535.055 835.555 535.68 835.555C536.266 835.555 536.715 835.444 537.027 835.223C537.353 835.001 537.587 834.754 537.73 834.48C537.9 834.168 537.997 833.81 538.023 833.406V831.805C537.997 831.362 537.9 830.971 537.73 830.633C537.587 830.333 537.353 830.066 537.027 829.832C536.715 829.585 536.266 829.461 535.68 829.461C535.367 829.461 535.094 829.493 534.859 829.559C534.638 829.624 534.436 829.715 534.254 829.832C534.085 829.936 533.941 830.06 533.824 830.203C533.707 830.346 533.609 830.49 533.531 830.633C533.349 830.971 533.245 831.362 533.219 831.805V833.406ZM547.516 832.469C547.516 831.206 547.691 830.132 548.043 829.246C548.408 828.348 548.87 827.605 549.43 827.02C549.99 826.434 550.608 825.971 551.285 825.633C551.962 825.294 552.62 825.04 553.258 824.871C553.909 824.702 554.488 824.598 554.996 824.559C555.517 824.52 555.901 824.5 556.148 824.5H556.812C557.06 824.5 557.444 824.52 557.965 824.559C558.486 824.598 559.059 824.702 559.684 824.871C560.322 825.04 560.973 825.294 561.637 825.633C562.314 825.971 562.926 826.434 563.473 827.02C564.033 827.605 564.488 828.348 564.84 829.246C565.191 830.132 565.367 831.206 565.367 832.469V843.992C565.367 845.294 565.191 846.401 564.84 847.312C564.488 848.224 564.033 848.986 563.473 849.598C562.926 850.197 562.314 850.665 561.637 851.004C560.973 851.342 560.322 851.603 559.684 851.785C559.059 851.954 558.486 852.059 557.965 852.098C557.444 852.137 557.06 852.156 556.812 852.156H556.148C555.901 852.156 555.517 852.137 554.996 852.098C554.488 852.059 553.909 851.954 553.258 851.785C552.62 851.603 551.962 851.342 551.285 851.004C550.608 850.665 549.99 850.197 549.43 849.598C548.87 848.986 548.408 848.224 548.043 847.312C547.691 846.401 547.516 845.294 547.516 843.992V832.469ZM553.922 845.008C553.961 845.464 554.085 845.867 554.293 846.219C554.462 846.518 554.716 846.798 555.055 847.059C555.406 847.306 555.888 847.43 556.5 847.43C557.099 847.43 557.568 847.306 557.906 847.059C558.245 846.798 558.499 846.518 558.668 846.219C558.863 845.867 558.987 845.464 559.039 845.008V831.805C558.987 831.349 558.863 830.945 558.668 830.594C558.499 830.294 558.245 830.021 557.906 829.773C557.568 829.513 557.099 829.383 556.5 829.383C555.888 829.383 555.406 829.513 555.055 829.773C554.716 830.021 554.462 830.294 554.293 830.594C554.085 830.945 553.961 831.349 553.922 831.805V845.008ZM578.609 830.32V830.086H572.477C572.021 830.086 571.546 830.06 571.051 830.008C570.569 829.956 570.12 829.839 569.703 829.656C569.299 829.474 568.961 829.201 568.688 828.836C568.427 828.471 568.297 827.977 568.297 827.352C568.297 826.74 568.427 826.258 568.688 825.906C568.961 825.542 569.299 825.268 569.703 825.086C570.12 824.904 570.569 824.786 571.051 824.734C571.546 824.682 572.021 824.656 572.477 824.656H582.945C583.466 824.656 583.928 824.741 584.332 824.91C584.749 825.079 585.094 825.307 585.367 825.594C585.654 825.867 585.868 826.186 586.012 826.551C586.155 826.915 586.227 827.286 586.227 827.664C586.227 827.885 586.207 828.1 586.168 828.309C586.129 828.517 586.057 828.719 585.953 828.914L580.328 839.188C580.003 839.773 579.742 840.281 579.547 840.711C579.365 841.128 579.221 841.525 579.117 841.902C579.026 842.28 578.961 842.671 578.922 843.074C578.896 843.478 578.883 843.953 578.883 844.5V847.43C578.883 848.003 578.863 848.562 578.824 849.109C578.798 849.656 578.688 850.145 578.492 850.574C578.297 851.004 577.984 851.349 577.555 851.609C577.138 851.87 576.539 852 575.758 852C574.99 852 574.397 851.87 573.98 851.609C573.577 851.349 573.277 851.004 573.082 850.574C572.9 850.145 572.789 849.656 572.75 849.109C572.724 848.562 572.711 848.003 572.711 847.43V844.5C572.711 843.576 572.73 842.82 572.77 842.234C572.822 841.648 572.913 841.134 573.043 840.691C573.173 840.236 573.349 839.793 573.57 839.363C573.792 838.934 574.078 838.406 574.43 837.781L578.609 830.32ZM589.117 832.469C589.117 831.206 589.293 830.132 589.645 829.246C590.009 828.348 590.471 827.605 591.031 827.02C591.591 826.434 592.21 825.971 592.887 825.633C593.564 825.294 594.221 825.04 594.859 824.871C595.51 824.702 596.09 824.598 596.598 824.559C597.118 824.52 597.503 824.5 597.75 824.5H598.414C598.661 824.5 599.046 824.52 599.566 824.559C600.087 824.598 600.66 824.702 601.285 824.871C601.923 825.04 602.574 825.294 603.238 825.633C603.915 825.971 604.527 826.434 605.074 827.02C605.634 827.605 606.09 828.348 606.441 829.246C606.793 830.132 606.969 831.206 606.969 832.469V843.992C606.969 845.294 606.793 846.401 606.441 847.312C606.09 848.224 605.634 848.986 605.074 849.598C604.527 850.197 603.915 850.665 603.238 851.004C602.574 851.342 601.923 851.603 601.285 851.785C600.66 851.954 600.087 852.059 599.566 852.098C599.046 852.137 598.661 852.156 598.414 852.156H597.75C597.503 852.156 597.118 852.137 596.598 852.098C596.09 852.059 595.51 851.954 594.859 851.785C594.221 851.603 593.564 851.342 592.887 851.004C592.21 850.665 591.591 850.197 591.031 849.598C590.471 848.986 590.009 848.224 589.645 847.312C589.293 846.401 589.117 845.294 589.117 843.992V832.469ZM595.523 845.008C595.562 845.464 595.686 845.867 595.895 846.219C596.064 846.518 596.318 846.798 596.656 847.059C597.008 847.306 597.49 847.43 598.102 847.43C598.701 847.43 599.169 847.306 599.508 847.059C599.846 846.798 600.1 846.518 600.27 846.219C600.465 845.867 600.589 845.464 600.641 845.008V831.805C600.589 831.349 600.465 830.945 600.27 830.594C600.1 830.294 599.846 830.021 599.508 829.773C599.169 829.513 598.701 829.383 598.102 829.383C597.49 829.383 597.008 829.513 596.656 829.773C596.318 830.021 596.064 830.294 595.895 830.594C595.686 830.945 595.562 831.349 595.523 831.805V845.008ZM616.578 845.281C616.604 845.685 616.708 846.043 616.891 846.355C617.047 846.629 617.288 846.876 617.613 847.098C617.939 847.319 618.414 847.43 619.039 847.43C619.625 847.43 620.074 847.319 620.387 847.098C620.712 846.876 620.947 846.629 621.09 846.355C621.259 846.043 621.357 845.685 621.383 845.281V841.57C621.357 841.128 621.259 840.737 621.09 840.398C620.947 840.099 620.712 839.832 620.387 839.598C620.074 839.35 619.625 839.227 619.039 839.227C618.727 839.227 618.453 839.259 618.219 839.324C617.997 839.389 617.796 839.48 617.613 839.598C617.444 839.702 617.301 839.826 617.184 839.969C617.066 840.112 616.969 840.255 616.891 840.398C616.708 840.737 616.604 841.128 616.578 841.57V845.281ZM619.039 824.5C619.339 824.5 619.736 824.52 620.23 824.559C620.738 824.585 621.279 824.669 621.852 824.812C622.424 824.956 622.997 825.177 623.57 825.477C624.156 825.776 624.684 826.199 625.152 826.746C625.621 827.293 625.999 827.983 626.285 828.816C626.585 829.637 626.734 830.646 626.734 831.844V832.352C626.734 833.159 626.682 833.849 626.578 834.422C626.474 834.982 626.324 835.457 626.129 835.848C625.934 836.238 625.699 836.564 625.426 836.824C625.152 837.085 624.846 837.312 624.508 837.508C624.846 837.703 625.172 837.931 625.484 838.191C625.81 838.452 626.09 838.777 626.324 839.168C626.572 839.559 626.767 840.04 626.91 840.613C627.053 841.173 627.125 841.857 627.125 842.664V844.812C627.125 846.01 626.969 847.026 626.656 847.859C626.344 848.68 625.934 849.363 625.426 849.91C624.931 850.457 624.378 850.88 623.766 851.18C623.154 851.479 622.548 851.701 621.949 851.844C621.35 851.987 620.79 852.072 620.27 852.098C619.749 852.137 619.339 852.156 619.039 852.156C618.74 852.156 618.323 852.137 617.789 852.098C617.268 852.072 616.695 851.987 616.07 851.844C615.458 851.701 614.833 851.479 614.195 851.18C613.57 850.88 612.997 850.457 612.477 849.91C611.956 849.363 611.533 848.68 611.207 847.859C610.882 847.026 610.719 846.01 610.719 844.812V842.664C610.719 841.857 610.79 841.173 610.934 840.613C611.077 840.04 611.266 839.559 611.5 839.168C611.747 838.777 612.027 838.452 612.34 838.191C612.665 837.931 612.997 837.703 613.336 837.508C612.997 837.312 612.691 837.085 612.418 836.824C612.145 836.564 611.91 836.238 611.715 835.848C611.52 835.457 611.37 834.982 611.266 834.422C611.161 833.849 611.109 833.159 611.109 832.352V831.844C611.109 830.646 611.259 829.637 611.559 828.816C611.871 827.983 612.268 827.293 612.75 826.746C613.245 826.199 613.792 825.776 614.391 825.477C615.003 825.177 615.602 824.956 616.188 824.812C616.773 824.669 617.32 824.585 617.828 824.559C618.336 824.52 618.74 824.5 619.039 824.5ZM616.578 833.406C616.604 833.81 616.708 834.168 616.891 834.48C617.047 834.754 617.288 835.001 617.613 835.223C617.939 835.444 618.414 835.555 619.039 835.555C619.625 835.555 620.074 835.444 620.387 835.223C620.712 835.001 620.947 834.754 621.09 834.48C621.259 834.168 621.357 833.81 621.383 833.406V831.805C621.357 831.362 621.259 830.971 621.09 830.633C620.947 830.333 620.712 830.066 620.387 829.832C620.074 829.585 619.625 829.461 619.039 829.461C618.727 829.461 618.453 829.493 618.219 829.559C617.997 829.624 617.796 829.715 617.613 829.832C617.444 829.936 617.301 830.06 617.184 830.203C617.066 830.346 616.969 830.49 616.891 830.633C616.708 830.971 616.604 831.362 616.578 831.805V833.406Z" fill="#0CCE6B"/>
<path d="M315.82 836.141C315.547 836.141 315.28 836.121 315.02 836.082C314.759 836.043 314.531 835.965 314.336 835.848C314.141 835.717 313.978 835.535 313.848 835.301C313.73 835.066 313.672 834.747 313.672 834.344C313.672 833.901 313.73 833.556 313.848 833.309C313.978 833.061 314.141 832.879 314.336 832.762C314.531 832.645 314.759 832.573 315.02 832.547C315.28 832.521 315.547 832.508 315.82 832.508H318.359L318.789 829.969C318.802 829.839 318.835 829.669 318.887 829.461C318.952 829.253 319.043 829.051 319.16 828.855C319.29 828.66 319.453 828.491 319.648 828.348C319.857 828.204 320.117 828.133 320.43 828.133C320.677 828.133 320.924 828.152 321.172 828.191C321.419 828.23 321.634 828.309 321.816 828.426C322.012 828.543 322.168 828.712 322.285 828.934C322.402 829.155 322.461 829.448 322.461 829.812C322.461 829.852 322.454 829.904 322.441 829.969C322.441 830.021 322.428 830.138 322.402 830.32C322.376 830.49 322.331 830.75 322.266 831.102C322.214 831.44 322.135 831.909 322.031 832.508H325.352L325.781 829.969C325.794 829.839 325.827 829.669 325.879 829.461C325.944 829.253 326.035 829.051 326.152 828.855C326.283 828.66 326.445 828.491 326.641 828.348C326.849 828.204 327.109 828.133 327.422 828.133C327.669 828.133 327.917 828.152 328.164 828.191C328.411 828.23 328.626 828.309 328.809 828.426C329.004 828.543 329.16 828.712 329.277 828.934C329.395 829.155 329.453 829.448 329.453 829.812C329.453 829.852 329.447 829.904 329.434 829.969C329.434 830.021 329.421 830.138 329.395 830.32C329.368 830.49 329.323 830.75 329.258 831.102C329.206 831.44 329.128 831.909 329.023 832.508H330.703C330.951 832.508 331.204 832.521 331.465 832.547C331.725 832.573 331.953 832.645 332.148 832.762C332.357 832.879 332.526 833.061 332.656 833.309C332.786 833.556 332.852 833.901 332.852 834.344C332.852 834.747 332.786 835.066 332.656 835.301C332.526 835.535 332.357 835.717 332.148 835.848C331.953 835.965 331.725 836.043 331.465 836.082C331.204 836.121 330.951 836.141 330.703 836.141H328.438L327.656 840.516H329.297C329.544 840.516 329.798 840.529 330.059 840.555C330.319 840.581 330.547 840.652 330.742 840.77C330.951 840.887 331.12 841.069 331.25 841.316C331.38 841.564 331.445 841.909 331.445 842.352C331.445 842.768 331.38 843.094 331.25 843.328C331.12 843.562 330.951 843.745 330.742 843.875C330.547 843.992 330.319 844.07 330.059 844.109C329.798 844.135 329.544 844.148 329.297 844.148H327.031L326.719 846.18C326.654 846.557 326.576 846.909 326.484 847.234C326.406 847.56 326.296 847.846 326.152 848.094C326.022 848.328 325.853 848.517 325.645 848.66C325.449 848.803 325.208 848.875 324.922 848.875C324.674 848.875 324.427 848.862 324.18 848.836C323.945 848.81 323.73 848.745 323.535 848.641C323.34 848.523 323.184 848.361 323.066 848.152C322.949 847.944 322.891 847.651 322.891 847.273C322.891 847.234 322.891 847.182 322.891 847.117C322.904 847.039 322.923 846.896 322.949 846.688C322.975 846.479 323.021 846.18 323.086 845.789C323.151 845.385 323.242 844.839 323.359 844.148H320.039L319.727 846.18C319.661 846.557 319.583 846.909 319.492 847.234C319.414 847.56 319.303 847.846 319.16 848.094C319.03 848.328 318.861 848.517 318.652 848.66C318.457 848.803 318.216 848.875 317.93 848.875C317.682 848.875 317.435 848.862 317.188 848.836C316.953 848.81 316.738 848.745 316.543 848.641C316.348 848.523 316.191 848.361 316.074 848.152C315.957 847.944 315.898 847.651 315.898 847.273C315.898 847.234 315.898 847.182 315.898 847.117C315.911 847.039 315.931 846.896 315.957 846.688C315.983 846.479 316.029 846.18 316.094 845.789C316.159 845.385 316.25 844.839 316.367 844.148H314.453C314.18 844.148 313.913 844.135 313.652 844.109C313.392 844.07 313.164 843.992 312.969 843.875C312.773 843.745 312.611 843.562 312.48 843.328C312.363 843.094 312.305 842.768 312.305 842.352C312.305 841.909 312.363 841.564 312.48 841.316C312.611 841.069 312.773 840.887 312.969 840.77C313.164 840.652 313.392 840.581 313.652 840.555C313.913 840.529 314.18 840.516 314.453 840.516H316.953L317.734 836.141H315.82ZM320.664 840.516H323.945L324.727 836.141H321.445L320.664 840.516ZM336.758 832.469C336.758 831.206 336.934 830.132 337.285 829.246C337.65 828.348 338.112 827.605 338.672 827.02C339.232 826.434 339.85 825.971 340.527 825.633C341.204 825.294 341.862 825.04 342.5 824.871C343.151 824.702 343.73 824.598 344.238 824.559C344.759 824.52 345.143 824.5 345.391 824.5H346.055C346.302 824.5 346.686 824.52 347.207 824.559C347.728 824.598 348.301 824.702 348.926 824.871C349.564 825.04 350.215 825.294 350.879 825.633C351.556 825.971 352.168 826.434 352.715 827.02C353.275 827.605 353.73 828.348 354.082 829.246C354.434 830.132 354.609 831.206 354.609 832.469V843.992C354.609 845.294 354.434 846.401 354.082 847.312C353.73 848.224 353.275 848.986 352.715 849.598C352.168 850.197 351.556 850.665 350.879 851.004C350.215 851.342 349.564 851.603 348.926 851.785C348.301 851.954 347.728 852.059 347.207 852.098C346.686 852.137 346.302 852.156 346.055 852.156H345.391C345.143 852.156 344.759 852.137 344.238 852.098C343.73 852.059 343.151 851.954 342.5 851.785C341.862 851.603 341.204 851.342 340.527 851.004C339.85 850.665 339.232 850.197 338.672 849.598C338.112 848.986 337.65 848.224 337.285 847.312C336.934 846.401 336.758 845.294 336.758 843.992V832.469ZM343.164 845.008C343.203 845.464 343.327 845.867 343.535 846.219C343.704 846.518 343.958 846.798 344.297 847.059C344.648 847.306 345.13 847.43 345.742 847.43C346.341 847.43 346.81 847.306 347.148 847.059C347.487 846.798 347.741 846.518 347.91 846.219C348.105 845.867 348.229 845.464 348.281 845.008V831.805C348.229 831.349 348.105 830.945 347.91 830.594C347.741 830.294 347.487 830.021 347.148 829.773C346.81 829.513 346.341 829.383 345.742 829.383C345.13 829.383 344.648 829.513 344.297 829.773C343.958 830.021 343.704 830.294 343.535 830.594C343.327 830.945 343.203 831.349 343.164 831.805V845.008ZM367.461 824.5C368.893 824.5 370.124 824.663 371.152 824.988C372.194 825.314 373.066 825.737 373.77 826.258C374.486 826.779 375.059 827.371 375.488 828.035C375.918 828.686 376.243 829.35 376.465 830.027C376.699 830.704 376.849 831.355 376.914 831.98C376.992 832.605 377.031 833.146 377.031 833.602C377.031 833.797 377.012 834.038 376.973 834.324C376.947 834.598 376.836 834.865 376.641 835.125C376.445 835.385 376.133 835.607 375.703 835.789C375.286 835.971 374.688 836.062 373.906 836.062C373.646 836.062 373.32 836.049 372.93 836.023C372.539 835.984 372.161 835.9 371.797 835.77C371.432 835.626 371.12 835.431 370.859 835.184C370.599 834.923 370.469 834.565 370.469 834.109C370.469 833.406 370.423 832.775 370.332 832.215C370.254 831.655 370.104 831.18 369.883 830.789C369.661 830.398 369.355 830.099 368.965 829.891C368.574 829.682 368.073 829.578 367.461 829.578C366.823 829.578 366.328 829.715 365.977 829.988C365.638 830.249 365.391 830.535 365.234 830.848C365.052 831.225 364.948 831.648 364.922 832.117V844.5C364.948 845.073 365.052 845.574 365.234 846.004C365.391 846.382 365.638 846.727 365.977 847.039C366.328 847.352 366.823 847.508 367.461 847.508C368.073 847.508 368.574 847.384 368.965 847.137C369.355 846.876 369.661 846.531 369.883 846.102C370.104 845.672 370.254 845.177 370.332 844.617C370.423 844.057 370.469 843.471 370.469 842.859C370.469 842.664 370.501 842.462 370.566 842.254C370.632 842.046 370.781 841.857 371.016 841.688C371.25 841.505 371.595 841.355 372.051 841.238C372.507 841.121 373.125 841.062 373.906 841.062C374.688 841.062 375.286 841.154 375.703 841.336C376.133 841.505 376.445 841.707 376.641 841.941C376.836 842.163 376.947 842.384 376.973 842.605C377.012 842.814 377.031 842.951 377.031 843.016C377.031 844.448 376.79 845.73 376.309 846.863C375.827 847.983 375.143 848.934 374.258 849.715C373.385 850.496 372.337 851.095 371.113 851.512C369.902 851.915 368.568 852.117 367.109 852.117C366.875 852.117 366.491 852.098 365.957 852.059C365.436 852.02 364.85 851.915 364.199 851.746C363.548 851.577 362.878 851.323 362.188 850.984C361.497 850.646 360.866 850.177 360.293 849.578C359.733 848.966 359.271 848.211 358.906 847.312C358.542 846.401 358.359 845.294 358.359 843.992V833.094C358.359 832.026 358.49 831.082 358.75 830.262C359.01 829.441 359.349 828.732 359.766 828.133C360.195 827.521 360.684 827.013 361.23 826.609C361.777 826.193 362.337 825.848 362.91 825.574C364.238 824.949 365.755 824.591 367.461 824.5ZM389.141 824.5C390.573 824.5 391.803 824.663 392.832 824.988C393.874 825.314 394.746 825.737 395.449 826.258C396.165 826.779 396.738 827.371 397.168 828.035C397.598 828.686 397.923 829.35 398.145 830.027C398.379 830.704 398.529 831.355 398.594 831.98C398.672 832.605 398.711 833.146 398.711 833.602C398.711 833.797 398.691 834.038 398.652 834.324C398.626 834.598 398.516 834.865 398.32 835.125C398.125 835.385 397.812 835.607 397.383 835.789C396.966 835.971 396.367 836.062 395.586 836.062C395.326 836.062 395 836.049 394.609 836.023C394.219 835.984 393.841 835.9 393.477 835.77C393.112 835.626 392.799 835.431 392.539 835.184C392.279 834.923 392.148 834.565 392.148 834.109C392.148 833.406 392.103 832.775 392.012 832.215C391.934 831.655 391.784 831.18 391.562 830.789C391.341 830.398 391.035 830.099 390.645 829.891C390.254 829.682 389.753 829.578 389.141 829.578C388.503 829.578 388.008 829.715 387.656 829.988C387.318 830.249 387.07 830.535 386.914 830.848C386.732 831.225 386.628 831.648 386.602 832.117V844.5C386.628 845.073 386.732 845.574 386.914 846.004C387.07 846.382 387.318 846.727 387.656 847.039C388.008 847.352 388.503 847.508 389.141 847.508C389.753 847.508 390.254 847.384 390.645 847.137C391.035 846.876 391.341 846.531 391.562 846.102C391.784 845.672 391.934 845.177 392.012 844.617C392.103 844.057 392.148 843.471 392.148 842.859C392.148 842.664 392.181 842.462 392.246 842.254C392.311 842.046 392.461 841.857 392.695 841.688C392.93 841.505 393.275 841.355 393.73 841.238C394.186 841.121 394.805 841.062 395.586 841.062C396.367 841.062 396.966 841.154 397.383 841.336C397.812 841.505 398.125 841.707 398.32 841.941C398.516 842.163 398.626 842.384 398.652 842.605C398.691 842.814 398.711 842.951 398.711 843.016C398.711 844.448 398.47 845.73 397.988 846.863C397.507 847.983 396.823 848.934 395.938 849.715C395.065 850.496 394.017 851.095 392.793 851.512C391.582 851.915 390.247 852.117 388.789 852.117C388.555 852.117 388.171 852.098 387.637 852.059C387.116 852.02 386.53 851.915 385.879 851.746C385.228 851.577 384.557 851.323 383.867 850.984C383.177 850.646 382.546 850.177 381.973 849.578C381.413 848.966 380.951 848.211 380.586 847.312C380.221 846.401 380.039 845.294 380.039 843.992V833.094C380.039 832.026 380.169 831.082 380.43 830.262C380.69 829.441 381.029 828.732 381.445 828.133C381.875 827.521 382.363 827.013 382.91 826.609C383.457 826.193 384.017 825.848 384.59 825.574C385.918 824.949 387.435 824.591 389.141 824.5ZM413.281 824.656C413.802 824.656 414.329 824.676 414.863 824.715C415.397 824.754 415.879 824.865 416.309 825.047C416.738 825.229 417.09 825.509 417.363 825.887C417.637 826.251 417.773 826.766 417.773 827.43C417.773 828.094 417.637 828.615 417.363 828.992C417.09 829.357 416.738 829.63 416.309 829.812C415.879 829.995 415.397 830.105 414.863 830.145C414.329 830.184 413.802 830.203 413.281 830.203H408.633V835.516H411.094C411.615 835.516 412.135 835.535 412.656 835.574C413.19 835.6 413.659 835.704 414.062 835.887C414.479 836.056 414.818 836.323 415.078 836.688C415.339 837.039 415.469 837.534 415.469 838.172C415.469 838.823 415.339 839.324 415.078 839.676C414.818 840.027 414.479 840.294 414.062 840.477C413.659 840.646 413.19 840.75 412.656 840.789C412.135 840.815 411.615 840.828 411.094 840.828H408.633V846.453H413.281C413.802 846.453 414.329 846.473 414.863 846.512C415.397 846.551 415.879 846.661 416.309 846.844C416.738 847.013 417.09 847.286 417.363 847.664C417.637 848.029 417.773 848.536 417.773 849.188C417.773 849.865 417.63 850.392 417.344 850.77C417.07 851.147 416.719 851.427 416.289 851.609C415.859 851.792 415.378 851.902 414.844 851.941C414.31 851.98 413.789 852 413.281 852H405.625C404.896 852 404.329 851.87 403.926 851.609C403.535 851.349 403.249 851.01 403.066 850.594C402.884 850.164 402.773 849.682 402.734 849.148C402.708 848.615 402.695 848.068 402.695 847.508V829.148C402.695 828.589 402.708 828.042 402.734 827.508C402.773 826.974 402.884 826.499 403.066 826.082C403.249 825.652 403.535 825.307 403.926 825.047C404.329 824.786 404.896 824.656 405.625 824.656H413.281ZM421.602 842.43C421.602 841.818 421.602 841.115 421.602 840.32C421.615 839.513 421.621 838.719 421.621 837.938C421.621 837.156 421.621 836.44 421.621 835.789C421.634 835.138 421.641 834.656 421.641 834.344C421.641 833.589 421.719 832.827 421.875 832.059C422.031 831.277 422.253 830.529 422.539 829.812C422.839 829.096 423.197 828.426 423.613 827.801C424.03 827.176 424.492 826.629 425 826.16C425.521 825.691 426.074 825.327 426.66 825.066C427.259 824.793 427.891 824.656 428.555 824.656C429.01 824.682 429.408 824.773 429.746 824.93C430.098 825.073 430.391 825.262 430.625 825.496C430.859 825.717 431.035 825.971 431.152 826.258C431.27 826.544 431.328 826.844 431.328 827.156C431.328 827.586 431.211 828.016 430.977 828.445C430.742 828.875 430.378 829.279 429.883 829.656C429.492 829.969 429.154 830.249 428.867 830.496C428.581 830.743 428.34 830.991 428.145 831.238C427.962 831.486 427.812 831.753 427.695 832.039C427.591 832.312 427.507 832.632 427.441 832.996C427.389 833.348 427.35 833.764 427.324 834.246C427.311 834.728 427.305 835.294 427.305 835.945C427.435 835.672 427.624 835.444 427.871 835.262C428.118 835.079 428.385 834.936 428.672 834.832C428.971 834.728 429.284 834.656 429.609 834.617C429.935 834.565 430.247 834.539 430.547 834.539C430.911 834.539 431.341 834.572 431.836 834.637C432.344 834.702 432.865 834.832 433.398 835.027C433.932 835.21 434.46 835.477 434.98 835.828C435.501 836.18 435.964 836.642 436.367 837.215C436.771 837.775 437.096 838.465 437.344 839.285C437.604 840.105 437.734 841.076 437.734 842.195V843.992C437.734 845.294 437.572 846.401 437.246 847.312C436.934 848.224 436.53 848.986 436.035 849.598C435.54 850.197 434.987 850.665 434.375 851.004C433.763 851.342 433.164 851.603 432.578 851.785C431.992 851.954 431.445 852.059 430.938 852.098C430.443 852.137 430.065 852.156 429.805 852.156C429.453 852.156 429.004 852.137 428.457 852.098C427.923 852.059 427.35 851.954 426.738 851.785C426.126 851.603 425.514 851.342 424.902 851.004C424.303 850.665 423.757 850.197 423.262 849.598C422.767 848.986 422.363 848.224 422.051 847.312C421.751 846.401 421.602 845.294 421.602 843.992V842.43ZM427.305 844.734C427.331 845.164 427.428 845.548 427.598 845.887C427.741 846.186 427.969 846.453 428.281 846.688C428.594 846.922 429.036 847.039 429.609 847.039C430.182 847.039 430.618 846.922 430.918 846.688C431.217 846.453 431.439 846.186 431.582 845.887C431.738 845.548 431.836 845.164 431.875 844.734V841.883C431.836 841.453 431.738 841.069 431.582 840.73C431.439 840.444 431.211 840.184 430.898 839.949C430.599 839.702 430.169 839.578 429.609 839.578C429.036 839.578 428.594 839.702 428.281 839.949C427.969 840.184 427.741 840.444 427.598 840.73C427.428 841.069 427.331 841.453 427.305 841.883V844.734ZM449.57 824.656C450.729 824.656 451.816 824.806 452.832 825.105C453.861 825.405 454.753 825.854 455.508 826.453C456.276 827.052 456.875 827.801 457.305 828.699C457.747 829.585 457.969 830.62 457.969 831.805C457.969 832.417 457.884 832.977 457.715 833.484C457.559 833.979 457.35 834.428 457.09 834.832C456.842 835.236 456.562 835.587 456.25 835.887C455.951 836.186 455.658 836.447 455.371 836.668C455.085 836.876 454.831 837.046 454.609 837.176C454.388 837.293 454.232 837.365 454.141 837.391C454.922 837.612 455.579 837.898 456.113 838.25C456.647 838.589 457.09 838.966 457.441 839.383C457.806 839.786 458.086 840.21 458.281 840.652C458.49 841.082 458.639 841.505 458.73 841.922C458.835 842.326 458.893 842.703 458.906 843.055C458.932 843.393 458.945 843.667 458.945 843.875C458.945 844.891 458.822 845.789 458.574 846.57C458.327 847.339 458.001 848.009 457.598 848.582C457.194 849.142 456.732 849.624 456.211 850.027C455.69 850.418 455.163 850.737 454.629 850.984C453.353 851.583 451.914 851.922 450.312 852H443.906C443.164 852 442.591 851.876 442.188 851.629C441.784 851.368 441.491 851.03 441.309 850.613C441.126 850.184 441.016 849.702 440.977 849.168C440.951 848.634 440.938 848.081 440.938 847.508V829.109C440.938 828.549 440.951 828.003 440.977 827.469C441.016 826.935 441.126 826.46 441.309 826.043C441.491 825.626 441.784 825.294 442.188 825.047C442.591 824.786 443.164 824.656 443.906 824.656H449.57ZM446.875 840.047V847.391H449.727C450.339 847.365 450.885 847.221 451.367 846.961C451.576 846.857 451.777 846.72 451.973 846.551C452.168 846.382 452.344 846.173 452.5 845.926C452.656 845.665 452.78 845.372 452.871 845.047C452.962 844.708 453.008 844.318 453.008 843.875C453.008 843.393 452.956 842.977 452.852 842.625C452.76 842.26 452.63 841.948 452.461 841.688C452.305 841.414 452.122 841.186 451.914 841.004C451.706 840.809 451.497 840.652 451.289 840.535C450.781 840.262 450.208 840.099 449.57 840.047H446.875ZM446.875 829.266V835.906H449.375C449.935 835.88 450.436 835.75 450.879 835.516C451.061 835.424 451.243 835.301 451.426 835.145C451.608 834.988 451.771 834.806 451.914 834.598C452.057 834.376 452.168 834.116 452.246 833.816C452.337 833.517 452.383 833.172 452.383 832.781C452.383 832.339 452.337 831.954 452.246 831.629C452.155 831.29 452.031 831.004 451.875 830.77C451.732 830.522 451.562 830.314 451.367 830.145C451.185 829.975 450.996 829.832 450.801 829.715C450.332 829.467 449.805 829.318 449.219 829.266H446.875Z" fill="#080708"/>
</svg>
