<svg width="231" height="299" viewBox="0 0 231 299" fill="none" xmlns="http://www.w3.org/2000/svg">
<path fill-rule="evenodd" clip-rule="evenodd" d="M69.8506 66.2701C61.8697 73.0286 51.774 78.3346 42.4388 82.156C31.202 86.7559 23.837 96.3987 23.837 105.445V204.929C23.837 214.735 31.7865 222.684 41.5926 222.684H104.822C115.171 222.684 125.146 226.558 132.783 233.543L165.142 263.139V255.236C165.142 237.258 179.716 222.684 197.694 222.684C202.597 222.684 206.571 218.71 206.571 213.806V97.6556H230.245V213.806C230.245 231.784 215.671 246.358 197.694 246.358C192.79 246.358 188.816 250.333 188.816 255.236V283.29C188.816 296.157 173.528 302.892 164.033 294.209L116.805 251.012C113.532 248.018 109.257 246.358 104.822 246.358H41.5926C18.7116 246.358 0.162964 227.81 0.162964 204.929V105.445C0.162964 83.88 16.3777 67.2434 33.47 60.2466C41.5254 56.9491 49.1548 52.7738 54.5513 48.2037C60.1836 43.4341 61.5676 39.8467 61.5676 37.7306H85.2417C85.2417 50.1226 77.5959 59.7111 69.8506 66.2701Z" fill="#0CCE6B"/>
<path d="M38.6333 11.837C38.6333 5.29962 43.933 0 50.4704 0H180.678C187.215 0 192.515 5.29962 192.515 11.837C192.515 18.3745 187.215 23.6741 180.678 23.6741H50.4704C43.933 23.6741 38.6333 18.3745 38.6333 11.837Z" fill="#0CCE6B"/>
<path fill-rule="evenodd" clip-rule="evenodd" d="M180.678 1.47963H50.4704C44.7501 1.47963 40.113 6.1168 40.113 11.837C40.113 17.5573 44.7501 22.1944 50.4704 22.1944H180.678C186.398 22.1944 191.035 17.5573 191.035 11.837C191.035 6.1168 186.398 1.47963 180.678 1.47963ZM50.4704 0C43.933 0 38.6333 5.29962 38.6333 11.837C38.6333 18.3745 43.933 23.6741 50.4704 23.6741H180.678C187.215 23.6741 192.515 18.3745 192.515 11.837C192.515 5.29962 187.215 0 180.678 0H50.4704Z" fill="#0CCE6B"/>
<path fill-rule="evenodd" clip-rule="evenodd" d="M104.657 121.751C95.3633 116.343 83.2992 116.241 70.9929 120.641C61.0058 124.211 51.6722 125.748 40.1339 125.769L40.092 102.094C49.1973 102.078 55.8224 100.922 63.0239 98.3481C79.5642 92.4354 99.3801 91.29 116.564 101.29L123.438 105.29C133.439 111.109 146.842 111.078 160.911 106.974C169.235 104.546 176.615 103.332 181.949 102.722C184.624 102.416 186.806 102.259 188.36 102.179C189.138 102.139 189.76 102.118 190.211 102.107C190.437 102.101 190.62 102.098 190.758 102.096C190.827 102.096 190.884 102.095 190.931 102.095L190.992 102.095L191.016 102.094L191.031 102.094C191.033 102.094 191.035 102.094 191.035 113.931C191.035 125.769 191.037 125.769 191.039 125.769L191.062 125.768L191.072 125.768C191.073 125.768 191.064 125.768 191.043 125.769C191.002 125.769 190.918 125.77 190.794 125.774C190.546 125.78 190.136 125.793 189.581 125.822C188.469 125.879 186.78 125.998 184.64 126.243C180.346 126.734 174.322 127.723 167.541 129.701C150.516 134.667 129.527 136.223 111.531 125.752L104.657 121.751Z" fill="#0CCE6B"/>
<path d="M90.4204 174.596C90.4204 184.402 82.471 192.352 72.6648 192.352C62.8587 192.352 54.9093 184.402 54.9093 174.596C54.9093 164.79 62.8587 156.841 72.6648 156.841C82.471 156.841 90.4204 164.79 90.4204 174.596Z" fill="#0CCE6B"/>
<path d="M174.759 174.596C174.759 184.402 166.81 192.352 157.004 192.352C147.198 192.352 139.248 184.402 139.248 174.596C139.248 164.79 147.198 156.841 157.004 156.841C166.81 156.841 174.759 164.79 174.759 174.596Z" fill="#0CCE6B"/>
</svg>
